<?xml version="1.0" encoding="utf-8"?>
<!-- Generator: Adobe Illustrator 23.1.0, SVG Export Plug-In . SVG Version: 6.00 Build 0)  -->
<svg version="1.1" id="Layer_1" xmlns="http://www.w3.org/2000/svg" xmlns:xlink="http://www.w3.org/1999/xlink" x="0px" y="0px"
	 viewBox="0 0 1920 1080" style="enable-background:new 0 0 1920 1080;" xml:space="preserve">
<style type="text/css">
	.st0{display:none;fill:none;}
	.st1{fill:#FEFEFE;}
	.st2{fill:#DA789B;}
	.st3{fill:#F096B5;}
	.st4{fill:#9086A6;}
	.st5{fill:#DA789C;}
	.st6{fill:#9086A7;}
	.st7{fill:#F096B6;}
	.st8{fill:#E283A5;}
	.st9{fill:#F097B6;}
	.st10{fill:#9187A7;}
	.st11{fill:#DB7A9D;}
	.st12{fill:#D86D94;}
	.st13{fill:#E490AE;}
	.st14{fill:#F097B7;}
	.st15{fill:#DA779B;}
	.st16{fill:#FEFDFD;}
	.st17{fill:#DB7B9E;}
	.st18{fill:#DB7C9F;}
	.st19{fill:#E491AF;}
	.st20{fill:#DB7D9F;}
	.st21{fill:#DC7DA0;}
	.st22{fill:#DC7EA0;}
	.st23{fill:#DC7FA1;}
	.st24{fill:#887DA0;}
	.st25{fill:#DE88A7;}
	.st26{fill:#DF80A3;}
	.st27{fill:#877C9F;}
	.st28{fill:#E08BAA;}
	.st29{fill:#DE87A7;}
	.st30{fill:#F8E6ED;}
	.st31{fill:#E190AD;}
	.st32{fill:#E191AE;}
	.st33{fill:#D86F95;}
	.st34{fill:#E297B2;}
	.st35{fill:#E5A0B9;}
	.st36{fill:#857A9E;}
	.st37{fill:#F1E1E9;}
	.st38{fill:#E9ADC3;}
	.st39{fill:#E08EAC;}
	.st40{fill:#DF8AA9;}
	.st41{fill:#DF8BAA;}
	.st42{fill:#E398B3;}
	.st43{fill:#E8ACC2;}
	.st44{fill:#F9EAF0;}
	.st45{fill:#E499B4;}
	.st46{fill:#F7E1E9;}
	.st47{fill:#E08CAA;}
	.st48{fill:#E9AFC4;}
	.st49{fill:#E293B0;}
	.st50{fill:#DF88A8;}
	.st51{fill:#F1CFDC;}
	.st52{fill:#E6A2BB;}
	.st53{fill:#E6A3BC;}
	.st54{fill:#EDBBCE;}
	.st55{fill:#DF8BA9;}
	.st56{fill:#F8E7EE;}
	.st57{fill:#E396B2;}
	.st58{fill:#E6A1BB;}
	.st59{fill:#F7E2EA;}
	.st60{fill:#F4D6E2;}
	.st61{fill:#E192AF;}
	.st62{fill:#F8E8EE;}
	.st63{fill:#F2D2DE;}
	.st64{fill:#E49CB6;}
	.st65{fill:#EEBFD0;}
	.st66{fill:#E49AB4;}
	.st67{fill:#F2D1DE;}
	.st68{fill:#ECB8CB;}
	.st69{fill:#F8E6EC;}
	.st70{fill:#E294B1;}
	.st71{fill:#E7A7BE;}
	.st72{fill:#E6A3BB;}
	.st73{fill:#F4DAE3;}
	.st74{fill:#F1CEDB;}
	.st75{fill:#E49DB7;}
	.st76{fill:#E6A5BC;}
	.st77{fill:#F5DDE6;}
	.st78{fill:#F3ACC5;}
	.st79{fill:#E8ADC3;}
	.st80{fill:#E59EB8;}
	.st81{fill:#E5A3BC;}
	.st82{fill:#DE85A5;}
	.st83{fill:#F0C8D7;}
	.st84{fill:#E296B2;}
	.st85{fill:#FAEEF4;}
	.st86{fill:#FBF1F6;}
	.st87{fill:#EBB9CC;}
	.st88{fill:#E6A5BD;}
	.st89{fill:#E9AEC4;}
	.st90{fill:#E49EB8;}
	.st91{fill:#F5DAE4;}
	.st92{fill:#E8AEC4;}
	.st93{fill:#E08EAB;}
	.st94{fill:#E39DB6;}
	.st95{fill:#E9B0C5;}
	.st96{fill:#EDBFD0;}
	.st97{fill:#E399B4;}
	.st98{fill:#F7E3EB;}
	.st99{fill:#F7CFE0;}
	.st100{fill:#DE84A5;}
	.st101{fill:#BFB9CC;}
	.st102{fill:#E498B4;}
	.st103{fill:#F6E0E8;}
	.st104{fill:#E7A8BE;}
	.st105{fill:#EEBECF;}
	.st106{fill:#E285A7;}
	.st107{fill:#E38EAD;}
	.st108{fill:#E28BAE;}
	.st109{fill:#E58CAE;}
	.st110{fill:#EF97B6;}
	.st111{fill:#9280A2;}
	.st112{fill:#E8E7ED;}
	.st113{fill:#F098B7;}
	.st114{fill:#ACA5BC;}
	.st115{fill:#EEEDF3;}
	.st116{fill:#F099B8;}
	.st117{fill:#F8F2F6;}
	.st118{fill:#DF82A4;}
	.st119{fill:#E492B0;}
	.st120{fill:#E18CAC;}
	.st121{fill:#867B9F;}
	.st122{fill:#D76C93;}
	.st123{fill:#D76B92;}
	.st124{fill:#FCF5F8;}
	.st125{fill:#D97096;}
	.st126{fill:#E18EAD;}
	.st127{fill:#E082A4;}
	.st128{fill:#F7D9E4;}
</style>
<rect x="-240" class="st0" width="2400" height="1080"/>

<g id="baby1" fill = "#ff86ad">
	<g>
		<path class="st1" d="M-716.9,601.6c1,0,1.4-0.6,2-1.2c5.1-5.1,10.2-10.4,15.5-15.5c1-1,1.2-1.6,0-2.9c-3.9-3.9-7.8-7.6-11.4-11.6
			c-1.4-1.4-3.3-0.6-4.5-1.8c1-1,2.4-0.6,3.7-0.4c5.7,1,11,3.3,15.5,6.9c2.4,2,4.9,3.9,7.6,5.3c-0.6-1-1-2.4-1.6-3.7
			c-1.2-2.9-0.2-4.7,2.7-5.3c1.4-0.4,2.9-0.4,4.5,0c2.9,0.8,5.5-0.2,8-1.6c3.3-1.8,6.3-4.1,9.6-5.5c4.3-1.8,8.8-3.5,13.7-2.9
			c2.2,1.2,3.5,3.3,4.9,5.1c7.3,9.4,11.2,20.2,12.9,31.8c0.8,4.9,1.4,10,1.2,14.9c0,1.8,0,3.5,0,5.3c0,1.2,0.4,2.7-0.8,3.3
			c-1,0.6-1.8-1-2.9-1.4c-5.5-1.8-10.8-4.1-16.5-5.9c-2.9-0.8-5.7-0.8-8.8-0.6c-5.7,0.4-11.2,2-16.9,3.3c-3.1,0.8-6.1,0.4-9-1
			c-5.1-2.7-10.8-4.1-15.9-7.3c-0.6-0.4-1.6-0.8-2.2-0.8c-4.5,0.2-7.1-3.3-10.6-5.1C-716.5,602.8-717.1,602.4-716.9,601.6z"/>
	</g>
	<g>
		<path class="st2" d="M-441.3,508.1c2.4-10.6,6.9-20,14.5-28c1-1.2,2-2.2,3.3-3.3c0.6-0.6,1.2-1,1.8-1.6c0.8-0.4,1.4-1,2.2-1.6
			c7.6-5.9,16.1-10,25.5-11.8c0.2,0,0.4-0.2,0.8-0.4c0.8-0.6,2,0,2.9-0.4c0.2,0,0.2,0,0.4,0c3.5-0.4,7.1-0.4,10.6,0
			c0.2,0.2,0.2,0.2,0.4,0c0.8,0.6,2-0.2,2.9,0.4c3.1,1.4,6.5,1,9.6,1.8c6.5,1.4,12.7,4.1,18.8,7.1c0.8,0.4,1.6,1,2.9,1
			c0.8,0.4,1.6,0.4,2.2,1l0,0c0.8,0.6,2,0.4,2.7,1.4c5.9,3.5,11.8,6.5,17.4,10.8c0.8,0.4,1.6,1,2.2,1.8c1.6,1.6,3.3,3.3,4.9,4.9
			c0.8,0.8,1.8,1.6,2.4,2.9l0,0c0.6,0.8,1.4,1.4,1.6,2.4c0.4,0.4,0.6,1,1,1.6c1,0.6,1.2,1.8,1.8,2.9l0,0c1,1.4,1.6,2.9,2.2,4.5l0,0
			c1,1.8,1.6,3.7,2.2,5.7l0,0c3.1,9.4,3.7,18.8,3.3,28.6c-0.4,8.4-1.8,16.7-4.3,24.9l0,0c-0.8,2.7-1.4,5.3-2.9,7.8
			c-0.4,0.4-0.4,1-0.4,1.6c-0.6,1.8-1.4,3.5-2.4,5.1c-0.8,1.4-1.6,2.7-2,4.3c-0.8,1.4-1.2,2.9-2.2,4.1l0,0c-0.6,0.8-1,2-1.6,2.9l0,0
			c-0.6,1.2-1.4,2.4-2.2,3.5l0,0c-0.4,0.8-1,1.4-1.6,2.2l0,0c-0.4,0.8-1,1.6-1.8,2.2c-0.4,0.4-0.6,0.8-1,1
			c-3.3,3.9-6.7,7.3-10.6,10.6l0,0c-1.4,0.8-1.8,2.4-3.7,2.4c-1.4-2-1.6-4.3-1.6-6.5c0.2-0.4,0.6-0.6,0.8-1
			c7.1-6.5,13.7-13.5,18.6-22c7.1-13.1,11.6-26.9,12.9-41.9c0.6-8.4,0.2-16.3-1.6-24.5c-2.9-12.7-9.8-22.5-19.8-30.2
			c-10-7.6-20.6-13.7-32.1-18.8c-0.6-0.6-1.6,0-2-0.6c0.2,0.2,0.6,0.6,1,1c1.6,1.4,3.3,2.7,4.9,4.1c0.2,0.4,0,0.8-0.6,0.6
			c-3.7-1.4-7.6-2.7-11.2-4.1c-11.8-5.1-23.3-3.9-34.7,0.8c-17.8,7.3-29,20.6-35.3,38.6c-1,3.3-2,6.1-0.4,9.6
			c1.2,2.2,0.4,9.6-0.8,11.4c-0.8-2-1-4.1-1-6.3s-0.4-4.3-1.4-6.5c-1.6-3.5-6.9-4.7-9.8-0.8s-5.1,8.4-5.5,13.3
			c-0.6,7.3-2,14.7-2.7,22c-0.2,2.9,0.2,5.5,1.2,8.2c0.6,1.4,1.6,3.3-0.2,4.1c-2.2,1-3.1-1-3.7-2.7c-2.2-5.1-1.4-10.2-0.8-15.3
			c0.6-3.9,2-7.6,1.4-11.4c0.6-1.4-0.2-3.1,0.4-4.5c1-7.8,3.9-14.7,11.2-19c1.6-0.2,3.3-0.6,4.9,0.2c1,0.4,1.8,0.6,2.9,1
			C-440.5,510.9-442.1,508.7-441.3,508.1z"/>
	</g>
	<g>
		<path class="st3" d="M-651.8,562c-8.4,0-15.5,3.7-22.3,8.2c-2.9,1.8-5.7,3.1-9.2,2c-1-0.2-2.2-0.2-3.3-0.2c-3.1,0.2-4.1,2-2.9,4.7
			c0.8,1.6,1.2,3.3,2,4.9c-5.7-2-9-6.5-13.7-9.2c-4.5-2.4-9.2-3.9-14.3-3.9h-0.2h-0.2c-3.9-0.4-8-0.4-11.8,0h-0.2h-0.2
			c-2.4,0.8-4.9-0.2-7.3,0.6h-0.2l-0.4,0.2c-2.4,0.8-4.9-0.2-7.3,0.6c-2.4,0-4.7,0-7.1,0c-1.4-0.8-3.1,0.2-4.5-0.4
			c-5.3-0.8-10.8-1.6-14.5-6.1c-1-0.8-2.2-1.2-3.3-1.6h-0.2h-0.2c-1.2-0.4-2.2-0.4-3.5,0c-7.6,2-12.5,7.8-16.9,13.5
			c-7.3,9.4-12.5,20-16.5,31c-0.4,0.8-0.6,2-1.8,2.7c0.4-4.1,1.8-7.6,3.1-11c4.1-11.4,10-22,18-31c3.5-3.9,7.6-7.1,12.7-8.6
			c0.8-0.6,2,0.2,2.9-0.4c0.4,0,1,0,1.4,0c1.4,0.6,3.3,0,4.5,1.2c2.7,1.6,5.5,2.9,6.5,6.3c0.4,1.4,2.2,0.8,3.5,1.2
			c1,0.4,2.2,0.2,3.3,0.2c4.1,0.4,8.4,0.4,12.5,0c0.4,0,0.8,0,1,0c1.6-0.8,3.5,0.2,5.1-0.4c0.2,0,0.4,0,0.4,0
			c1.6-0.8,3.5,0.2,5.1-0.6l0,0c1.8-0.8,3.9,0.2,5.5-0.6l0,0c5.3-0.4,10.8-0.4,16.1,0l0,0c0.8,0.6,2-0.2,2.9,0.6
			c2.2,0.8,4.5,1.4,6.5,2.2c0.8,0.4,1.6,0.4,2.2,1.2c1.6,1,3.3,2.2,5.1,3.3c0.8,0.2,1,1.4,2.2,1c0.8-1.6,2-3.1,3.9-3.3
			c2.7-0.8,5.3,0.2,8-0.4c1.4-0.2,2.4-1.2,3.5-2c2.7-2,5.5-3.9,8.2-5.7c1-0.4,1.8-1.4,2.9-1.6c2.4-0.8,4.9-1.4,7.3-2
			c0.4,0,0.8,0,1.2,0C-654.9,559.5-653,560.3-651.8,562C-651.6,561.6-651.6,561.8-651.8,562z"/>
	</g>
	<g>
		<path class="st4" d="M-665.1,560.3c-0.8,0.6-1.4,1.8-2.7,1c3.7-9,10.6-14.5,19.4-17.6c2.2-0.8,4.9-1,7.1-2c0.8-0.6,2,0.2,2.9-0.6
			c7.6-1.4,14.9-3.9,22.3-6.1c1.2-0.4,2.7-0.8,4.1-1c2-0.2,4.1-0.8,5.9-1.6c0.8-0.8,2,0,2.9-0.6l0,0c0.8-0.8,2,0,2.9-0.6l0,0
			c8.2-1.6,16.1-1,23.9,1.8c0.4,0.4,1,0.4,1.6,0.4c1,0.4,2,0.6,2.9,1l0,0c0.8,0.4,2,0.6,2.9,1l0,0c1.6,0.6,3.5,1.4,5.1,2.4
			c1.4,0.8,2.7,1.6,4.3,2c0.8,0.2,1.6,0.4,2.2,1l0,0c1.4,0.4,2.7,1,3.9,1.6l0,0c1,0.4,2,0.6,2.9,1.2l0,0c2,1,4.3,1,6.1,2.4
			c2.7,1.2,5.1,2.4,7.8,3.7c-0.8,2-2.7,0.6-3.7,1.2c-2.4-0.2-4.9,0.4-7.3-0.2c-8.6-2.7-16.3-7.6-24.5-11.2
			c-11.2-5.1-22.9-5.9-34.7-2.7c-12.5,3.7-24.9,6.3-37.6,8.8c-5.9,1.2-11.4,3.3-15.7,7.8c-0.2,1.6,0.8,0.8,1.2,0.8
			c2.9,0.2,5.3,1.2,7.6,2.9c-1.2,2-2.9,1-4.3,0.6c-0.4,0-0.8,0-1,0C-660.2,557.9-662.6,559.1-665.1,560.3z"/>
	</g>
	<g>
		<path class="st3" d="M-716.9,601.6c2.7,1.8,5.3,3.9,8.2,5.3c1.6,0.8,3.9,0.2,5.5,1.2c4.5,2.7,9.6,4.1,14.1,6.5
			c5.1,2.9,10,2.9,15.1,1c4.7-1.6,9.4-1.8,14.3-2.4c3.3-0.4,6.3,0.2,9.2,1.2c4.9,1.8,9.6,3.5,14.5,5.3c-2,0.8-2.4,2.7-2.9,4.5
			c-3.1-1.2-6.1-2.4-9.2-3.7c-7.8-3.5-15.9-2.7-23.9-0.8c-4.1,0.8-8.4,1.6-12.7,1.2c-6.3-2.9-13.1-5.1-18.4-10
			c-0.8-0.8-1.6-0.2-2.4-0.2c-1.2-0.2-2.4,0.2-3.7-0.2c-1.6,0-3.1-0.2-4.5-1.2c-4.9-3.5-10-6.7-16.1-7.8c-1-0.6-2.4,0.2-3.5-0.6
			h-0.2h-0.2c-1-0.6-2.2,0.2-3.5-0.6h-0.2h-0.2c-1.8-0.8-3.9,0.2-5.7-0.6l0,0c-1.2-0.6-2.7,0.2-3.9-0.4h-0.2h-0.2
			c-2-0.8-4.1,0.2-6.1-0.6h-0.2h-0.2c-0.8-0.6-2,0-2.9-0.4c-7.1-1-13.9-2.9-18.4-9.4c-0.4-0.6-0.4-1.2-0.4-1.8c-0.4-0.6-0.4-1,0.4-1
			c2.4,5.7,7.6,7.1,12.9,8.4c1,0.6,2.2-0.2,3.5,0.6c0.2,0,0.4,0,0.4,0c0.8,0.6,2,0,2.9,0.4c0.4,0,0.6,0,1,0c2.9,0.8,6.1-0.2,9,0.6
			c0.2,0,0.2,0,0.4,0c2.9,0.8,5.7-0.2,8.4,0.6c0.4,0,0.6,0,1,0c1.4,0.6,3.1-0.2,4.5,0.4c0.2,0,0.4,0,0.4,0c1,0.8,2.4-0.2,3.5,0.6
			C-723.9,598.7-720.2,599.9-716.9,601.6z"/>
	</g>
	<g>
		<path class="st4" d="M-481.5,632.2c0.6-3.3,1.8-6.1,3.1-9.2c0.4-0.8,0.8-2,1.8-1.8c1.4,0.4,0.2,1.6,0.2,2.4c0,0.6-0.2,1.4-0.4,1.8
			c-1.4,2.4-1.6,5.1-0.4,8c8.2-3.7,15.7-7.6,19-16.7c2.2-6.1,1.6-12.2,0.6-18.4c-1.2-7.1-2.7-14.5-2.4-21.8c0.2-4.5,1-8.8,3.3-12.9
			c0.2-0.4,0.4-0.8,1.4-0.8c-1.4,6.5-2.7,13.1-1.2,19.8c0.8,1.2,1,2.7,1.4,3.9c0.2,4.9,1.2,9.6,2.9,14.3c0.4,3.9,1.4,7.6,0.6,11.4
			c-0.2,0.8,0.2,1.6,0.8,2.2c2,2,2.9,4.7,3.5,7.6c1.4,6.5,3.5,12.7,5.5,19c0.2,0.4,0.2,0.8,0.4,1.2c0,2.2,1.6,1.6,2.9,1.6
			c2.7,1.6,3.7-0.8,5.3-1.8c1-1,2.9-1.6,2-3.9c-0.4-1,1-1.8,2.2-1.6c0.8,0.2,1.4,0.8,1.8,1.6c0.2,0.6,0,1-0.4,1.6l0,0
			c-0.4,1.2-0.2,2.9-1.4,3.9c-0.2,0.4-0.2,0.6-0.4,1c-0.8,1.4-1.6,2.9-3.1,3.5c-2.2,0.8-4.5,0.8-6.5,0.8c-4.3-0.4-7.1-2.9-8-6.9
			c-1.4-6.5-3.5-12.9-4.1-19.6c-0.2-1.6-0.4-3.3-1.4-4.9c-3.3,11.2-11.4,17.1-21.4,21.4c-2.2,0.8-4.9,0.6-6.3,2.9
			c-0.6,0.2-1,0.2-1.4-0.6c0.2-2,0.6-3.9,2-5.3c0.4-0.2,0.6,0.4,0.8,0.2c0.2-0.2-0.2-0.4-0.4-0.6c-1-1-0.4-2.2-0.2-3.5
			C-480.5,632-480.7,632.6-481.5,632.2z"/>
	</g>
	<g>
		<path class="st5" d="M-453,601c-2-4.5-3.1-9.4-2.9-14.5c-0.8-2.7-0.2-5.1,0-7.8c1.6-7.8,3.9-15.5,2-23.7c3.7,4.9,2.4,14.7,2,21.4
			c-0.6,8.2-1,16.5,4.3,24.1c3.3,4.7,6.3,9.8,8.8,15.1c0.8,2,1.8,3.9,1.6,6.1c0,0.8,0.2,2,0.8,2.7c3.3,3.3,6.3,6.5,9.8,9.4
			c3.9,3.3,8.8,2.7,13.3,2.4c4.5-0.2,8.8,0.2,13.1,0.6c4.1,0.4,8.4-0.4,12.5,0.8c0.8,0.2,1.4-0.6,2.2-1c0.8,1.6-0.2,1.8-1.4,2.2
			c-3.3,0.4-6.5-0.2-10,1c-3.1,1-6.3-0.2-9.6-0.8c0.2,1,2.9,0.2,1.6,2.2c-5.5,0.2-10.8-0.4-16.1-0.8l0,0c-0.8-0.6-2,0.2-2.9-0.6
			c-0.8-0.2-1.6-0.4-2.2-1c-0.6-0.4-1.4-0.6-1.8-1.2c-0.4-0.4-1-0.8-1.4-1c0-1.4-0.8-2-2-2.2c-3.5-3.1-6.5-6.3-9-10.4
			c-0.4-0.6-0.8-1.2-0.4-2c0.2-0.4,0.4-0.4,0.8-0.6c-0.2-0.2-0.6,0-0.8,0c-1.4-0.6-2-1.8-2.7-3.1C-446.6,612.4-450.5,607.1-453,601z
			"/>
	</g>
	<g>
		<path class="st6" d="M-540.3,551.3c0.8-1,2.4,0,3.3-1c1.4,0.4,2.9,0.8,4.5,0.4s3.3-0.4,5.1,0c0.8,0,1.8,0,2.7,0
			c2.7,0.6,5.3-0.2,8,0.4c0.8,0,1.4,0.2,2.2,0.2c0.4,1.2,1.4,1.4,2.4,1.8c0.2,0.2,0.2,0.2,0.2,0.2c-4.5,5.7-7.8,12-10.4,18.6
			c-3.7,9-8.2,17.8-10.4,27.4c-0.4,2-0.6,4.3-1.8,5.9c-1.6-1.2-1.4,1.4-2.4,1c-1-2.9-0.2-5.5,0.4-8.2c4.3-15.1,11.4-29,19.2-42.5
			c0.4-0.8,1-1.2,1.2-2.4c-6.9-0.2-13.7-1.6-20.6,0c-4.3,1-8,3.1-11,6.1c-3.3,3.3-6.5,6.3-9.2,10c-0.4,0.2-0.8,0-0.4-0.6
			c4.7-7.1,10.2-13.5,18.4-16.7c0.4-0.4,0.8-0.4,1.2-0.6c0.2,0,0.4-0.2,0.6,0C-538.3,551.6-539.5,552.2-540.3,551.3z"/>
	</g>
	<g>
		<path class="st7" d="M-439.7,647.9c2.2-0.2,4.7-0.4,6.9-0.8c1.6-0.6,3.5-0.4,5.3,0l0,0c1.4,0.4,2.7,0.4,4.1,0
			c0.8,0.2,1.4-0.2,2-0.6c1.4-0.4,2.9-0.6,4.5,0.2c4.1,1.4,5.7,5.1,7.8,8.4c0.8,1.2,1.2,2.7,1.8,3.9l0,0c0.6,0.8,0.6,1.8,1,2.9l0,0
			c0.8,1.6,1.2,3.3,1.6,5.1l0,0c0.4,1,0.6,1.8-0.2,2.7c-0.4,0.2-0.4,0.6-0.4,1c-1,1.2-2.2,1-3.3,0.2c-0.2-0.2-0.4-0.4-0.4-0.6
			c-1-2.7-1.6-5.3-2.9-7.8l0,0c-0.6-0.8-0.6-1.8-1-2.9l0,0c-0.4-2.7-2-4.7-3.5-6.9c-0.8-1.2-2.2-1.8-3.7-1.4
			c-2.4,0.8-4.9,0.6-7.3,0.4c-6.7-0.6-13.3,0.6-19.8,2c-6.1,1.2-10.6,5.1-14.5,9.8c-0.4,0.6-0.6,1.6-1.8,1.8
			c0.6-4.9,4.1-7.3,7.3-10.2c0.2-0.6,0.6-1.2,1.2-1.4c1-0.4,2-0.2,2.9-0.4c1.2-0.4,2.7-0.6,2.4-2.4c2.4-2,5.3-1.8,8.2-2.2
			C-440.9,648.3-440.1,648.3-439.7,647.9z"/>
	</g>
	<g>
		<path class="st5" d="M-387.2,638.3c1,0,1.8-0.4,1.6-1.6c12.2-6.7,24.5-13.7,35.1-23.1c2.9-2.4,5.9-4.7,8.8-7.1
			c0.2-0.2,0.4-0.2,0.8-0.2c1.2,1.8,2.4,3.9,2,6.3c-0.4,0.8-1,1.2-1.6,1.6c-0.2,0.2-0.4,0.2-0.4,0.4c-0.6,0.8-1.4,1.4-2.2,1.8
			c-0.2,0.2-0.4,0.2-0.4,0.4c-0.6,0.8-1.4,1.4-2.2,1.8c-0.2,0.2-0.4,0.2-0.4,0.4c-0.8,0.8-1.6,1.8-2.9,2.4l0,0
			c-1,0.8-1.6,1.6-2.9,2.2l0,0c-0.4,0.4-1,0.6-1.4,1s-0.8,1-1.6,0.8c-1.4-0.8-2.9-1.6-4.9-1.2c1,1,2.7,0.8,3.3,2.2
			c0,0.2,0,0.6,0,0.8c-4.1,4.3-8.8,7.3-14.3,9c-0.2,0-0.4-0.2-0.6-0.4c-0.2-1.8,1.4-2,2.4-2.7c1.6-0.8,3.5-1.4,4.5-3.3
			c-6.5,1.4-12.2,5.3-18.8,7.1c-0.4,0.2,0.2,0.4,0,0c1.4-0.4,2.9-1,3.9,0.6c0,0.4-0.2,0.8-0.6,1c-2,1.4-4.3,2-6.9,1.6
			C-388.6,640.2-387.6,639.3-387.2,638.3z"/>
	</g>
	<g>
		<path class="st6" d="M-466.4,613c-6.3-6.5-9.6-15.1-14.3-22.7c-1.4-2.4-3.1-4.9-4.5-7.3c-3.7-5.5-9-6.9-15.1-5.5
			c-6.5,1.4-12.9,3.7-17.4,10.4c0.2-2.2,0.8-3.3,1.8-4.3c6.1-6.3,13.9-9.2,22.7-8.6c4.7,0.4,8.2,3.5,10.6,7.1
			c6.3,9.4,12.5,18.6,16.3,29.4C-466.4,612-466.2,612.4-466.4,613z"/>
	</g>
	<g>
		<path class="st8" d="M-449.7,651.2c0.4,0,0.8,0,1,0.2c0.6,0.4,0,0.6-0.4,1c-1.6,1.8-3.9,1.8-6.3,1.6c-1.4,0.4-2.7,0.4-3.9,0
			c-8.8,0.4-16.1-3.3-22.9-8.4c-4.3-3.1-8.8-5.5-13.9-6.7c-2-0.8-4.1-1.6-6.1-2.2c-0.2-2.2,1.4-1.6,2.7-1.4
			c3.5,0.2,6.9,1.6,10.2,2.7c2,0.2,3.5,2.7,5.9,1.6c0.6,0.2,1,0.6,1.2,1c0.4,0.2,0.8,0.4,1.2,0.6c0.2,0.2,0.4,0.4,0.4,0.6
			c5.3,4.7,11,8.2,18.4,8.2c2.7,0,5.3,0,8.2,0C-452.3,650-450.7,649.5-449.7,651.2z"/>
	</g>
	<g>
		<path class="st7" d="M-357.2,627.3c0-0.2,0-0.4,0-0.6c0.6-0.6,1.4-1,2.2-1c0.4-0.4,0.8-0.6,1.2-1c0.2,0.2,0.2,0.6,0.4,1
			c3.7,2.7,7.8,4.7,10.6,8.6c0.8,1.2,1,2.4,1.6,3.7c0.6,1.2-0.2,2.2-0.4,3.3c-1.4,2-3.3,3.9-5.5,5.1c-1,0.4-2.2,0.4-3.3,0h-0.2h-0.2
			c-0.8-0.6-2,0-2.9-0.4c-1.2-0.2-2.7,0.2-3.9-0.6c-1.2-0.6-2.7,0.2-4.1-0.6h-0.2h-0.2c-1-0.6-2.2,0-3.5-0.4c-1-0.4-2.2-1-3.3-1.4
			c0.4-1,1.2-1,2-1c3.9,0,7.8-0.4,11.4,0.4c1.2,0.2,2.2,0.2,3.5,0c1.8-0.4,3.7-0.2,4.7-2c1-2,0.8-4.1-0.8-5.7
			C-350.7,631.4-353.5,628.9-357.2,627.3z"/>
	</g>
	<g>
		<path class="st9" d="M-800.4,615.5c-2.2-0.2-4.3,1-6.3,0.4c-0.8-0.2-2.2,0.2-1.4-1.6c1,0.4,2,0.4,3.1,0c2.2-0.4,4.5-0.8,6.5-1.2
			c1.4-0.4,2.9-0.4,4.5,0c3.3,1.6,6.7,3.1,10.6,3.5c1.2,0.4,2.7,0.4,3.9,0c2.7-3.1,3.7-6.9,5.3-10.6c1-2.7,2.2-5.1,5.7-5.3
			c0,3.1-1.6,5.5-3.1,8c-1.8,3.5-2.7,7.3-5.7,10c-0.4,0.4-0.8,0.6-1,0.8c-1.6,0.2-3.3,0.4-4.9,0c-3.3-0.4-6.3-1.6-9.4-3.1
			c-1.4-0.6-2.9-1.6-4.7-1.4C-798.4,615.5-799.6,614.8-800.4,615.5z"/>
	</g>
	<g>
		<path class="st10" d="M-468.1,533.6c-9.2,2.2-18.6,3.5-27.4,7.1c-5.7,2.4-10.4,5.9-14.7,10.2c-0.8,0.8,0.2,2.9-2,2.7l0,0
			c-0.4-1-2.2-0.6-2.2-2c0.2-0.2,0.4-0.4,0.6-0.8c0.6-0.6,1.2-1.4,1.6-2c0.4-0.4,0.6-0.8,1-1c1-0.6,1.8-1.4,2.7-2.2
			c6.7-5.5,14.9-8.4,23.3-10c3.1-0.6,6.1-1.2,9.2-1.8c0.8-0.6,2,0.2,2.9-0.4c0.6,0,1,0,1.6-0.2c0.8-0.4,1.6-0.2,2.7-0.2
			C-468.3,532.8-467.9,533-468.1,533.6z"/>
	</g>
	<g>
		<path class="st7" d="M-489.1,637.7c-3.5-0.6-6.7-1.2-10.2-1.8c-1-0.2-2.2-1-2.7,0.8c-4.3-1.8-9-3.1-13.7-3.5
			c-4.7-0.4-9.2,0.8-13.5,2.4c-0.6,0.2-1.2,0.8-2.2,0.4c3.7-3.7,8-5.5,13.1-5.7c2.7-0.2,5.3,0,8.2,0c6.3,1.4,12.5,3.5,18.4,6.3
			C-490.9,636.7-490.1,637.3-489.1,637.7z"/>
	</g>
	<g>
		<path class="st6" d="M-515.2,628.9c-1.8,0.6-3.5,0.6-5.3,0c-2-0.6-4.1-1-6.1-1.8c-6.1-2.2-11.6-1-16.3,3.5
			c-0.4-0.2-0.8-0.8-0.8-1.2s0-0.8,0.2-1c4.1-5.1,9.2-6.9,15.5-5.7c3.3,0.6,6.5,1.6,10,2.4c1.6,0.4,2.7,1.6,3.5,2.9
			C-514.2,628.7-515,628.7-515.2,628.9z"/>
	</g>
	<g>
		<path class="st11" d="M-365.4,485.8c-0.2,3.9-0.8,7.6-0.2,11.6c0.8,5.7,3.1,10,8.2,12.7c7.6,4.1,13.3,9.6,16.9,17.4
			c1,2.4,2,4.9,2,8c-1.6-1.6-2-3.3-2.9-5.1c-2.9-6.7-7.1-12.2-13.3-16.3c-0.6-0.4-1.4-1-2-1.4c-9.6-4.7-11-13.1-10-22.5
			c0.2-1,0-2.2,0.2-3.3c0.2-0.6,0.2-1.4,0.8-1.8C-365.6,485.2-365.2,485.4-365.4,485.8z"/>
	</g>
	<g>
		<path class="st6" d="M-543.8,628.3c0,0.4,0,0.8,0,1s-0.2,0.2-0.2,0.2c-2.4,1.2-2.7,4.1-4.3,5.9c-0.2-0.4-0.4-0.6-0.4-1
			c0.6-5.9-0.2-12,2.4-18c1.4-3.1,3.9-4.9,6.5-6.5c1-0.8,2-1.4,2.7-2.7c1,0.8,0.6,2,1,2.9c-1.8,1-3.5,2.7-4.9,4.1
			C-544.6,618.5-544.8,623.4-543.8,628.3z"/>
	</g>
	<g>
		<path class="st8" d="M-351.1,642.2c-1.2,1-2.7,0.6-3.9,0.4c-4.5-0.8-9.2-0.4-13.7-0.2c-0.4,0.2-0.8,0.2-1.2,0.2
			c-3.5,1.4-6.7,3.1-10.4,3.7c-1.6-0.2-3.1,0.2-4.7-0.2h-0.2h-0.2c-0.4-0.2-0.8-0.4-1.2-0.6c-0.6-0.4-1.4-1-1-2s1.4-1,2.4-0.8
			c2.7,0.2,5.3,0.4,7.8-1c3.5-1.4,6.7-2.7,10.6-2.4c4.1,0.6,8.4,0,12.5,1.2C-353.3,641-351.9,641-351.1,642.2z"/>
	</g>
	<g>
		<path class="st12" d="M-387.2,638.3c0.8,1-0.4,1.4-0.4,2.2c-0.2,1-1,1-1.8,1.4c-2.7,0.8-5.5,0.6-8.4,0.2c-1-0.2-2.2-0.2-3.3,0
			c-0.8,0.4-1.4,0-2-0.4c-0.4-0.4-0.8-0.2-1.2-0.6c-1-0.8-2.2-0.8-3.3-1c-0.4-0.2-1-0.2-1-0.8c0-0.8,0.6-0.8,1.2-0.8
			c1.6,0.2,3.3,0.4,4.9,0.6c2.9,0.4,5.5,0.8,8.4-0.8C-392.5,637.3-389.7,638.3-387.2,638.3z"/>
	</g>
	<g>
		<path class="st13" d="M-411.3,612.2c4.9,5.3,10,10.6,15.9,14.5c2.2,1.4,4.1,2.2,5.7-0.8c0.4-0.8,1.4-1.4,2-0.8
			c1,0.8,0.2,1.6-0.4,2.2c-1.8,2.7-4.3,3.5-6.9,1.8c-6.5-4.1-11.6-9.6-16.5-15.5c-0.4-0.4-0.4-1-0.4-1.6
			C-411.7,612-411.5,612-411.3,612.2z"/>
	</g>
	<g>
		<path class="st13" d="M-383.1,565c-3.1-0.8-5.9-1.8-8.8-2.4c-4.1-1-8.4-2.7-12.7-1.8c-0.4,0-0.8,0-1-0.4s-0.2-1,0.2-1.2
			c0.8-0.6,1.8-1,2.9-1c6.3,0.6,12.7,1,18.2,5.1C-383.7,563.6-383.3,563.8-383.1,565z"/>
	</g>
	<g>
		<path class="st14" d="M-415.2,681c-1.6,0.2-3.5,2.2-4.5,0.6c-1-1.8,1.6-2.7,3.1-3.5c1.6-1.2,2-2,1-4.3c-1.6-3.5-3.9-6.9-5.5-10.6
			c1.6-0.2,1.6,1.2,2.4,1.8c1.8,2.9,3.5,5.7,5.3,8.6c1.2,1.8,1.6,3.5,0.2,5.3c-0.2,0.8-1,1.2-1.6,1.6
			C-414.8,680.8-415,681-415.2,681z"/>
	</g>
	<g>
		<path class="st15" d="M-322.3,545.4c0,1,0,2,0,3.1c-0.2,0-0.4,0-0.6,0.2c-0.8-4.1-1.4-8.4-2.2-12.5c-0.8-0.6-1-1.6-1.2-2.7
			c0-0.6-0.2-1.4-0.4-2c-0.2-1-0.2-2-0.4-3.1c-0.2-0.8-0.4-1.6-0.2-2.4c0-4.5-1.2-8.8-1.8-13.1c-0.2-2-0.2-3.9-0.4-5.7
			c-0.4-1.6-0.4-3.3,0-4.7c0-0.8,0.2-1.6,0.2-2.7c1,0,0.8,0.6,0.4,1.2c-0.4,11.8,3.1,22.9,5.3,34.3c0,0.2,0.2,0.4,0.4,0.8
			c0.2,1.2,0.2,2.7,0,3.9c0.2,1,0.2,1.8,0.4,2.9C-322.1,543.4-322.7,544.4-322.3,545.4z"/>
	</g>
	<g>
		<path class="st16" d="M-417.8,499.1c1.8-1,3.7-2.2,5.5-3.3c0.8-0.6,2-1,2.9-1.6c3.3-0.8,5.9-3.3,9-4.5c1.4-0.4,2.7-1,3.9-1.6
			c1.6-1.4,3.9-1.8,5.9-2.4c-0.8,1-1.4,2.2-2.9,2.4c-1,0.8-2.7,1-3.3,2.2c-0.2,0-0.4,0-0.6,0c-1,0.8-2.2,1.2-3.5,1.6
			c-0.2,0.2-0.4,0.4-0.6,0.6c-3.7,2-7.3,3.9-11,5.7c-3.5,2-6.7,3.9-9.6,6.9c-0.4,0.4-1,1-1.8,0.6c-0.2-0.4-0.2-0.8,0.2-1
			c0.2-0.2,0.4-0.4,0.4-0.4c0.8-1,1.6-2,2.9-2.9c0.2-0.2,0.4-0.4,0.4-0.4C-419.3,500.3-418.7,499.7-417.8,499.1z"/>
	</g>
	<g>
		<path class="st13" d="M-394.2,602.4c-1.6,4.9-0.8,8,3.3,10.4c4.5,2.9,9.4,4.5,15.1,3.1c0.2,1.2-0.8,2-2,2.2
			c-6.1,1.6-16.3-3.5-18.4-9.2C-397,606.7-397.2,604.4-394.2,602.4z"/>
	</g>
	<g>
		<path class="st13" d="M-373.1,609.7c-0.4-5.7,0-10.8,1.6-15.9c1.4-4.5,4.7-5.9,9-4.7c0.2,0.4-0.2,0.6-0.4,0.6
			c-4.7,0.6-6.9,2.7-7.3,7.6c-0.2,2.7-0.4,5.5-0.6,8.4C-371.1,607.1-371.5,608.5-373.1,609.7z"/>
	</g>
	<g>
		<path class="st17" d="M-326,531.3c0.6,0.4,0.4,1,0.4,1.8c-0.6,0.6,0.2,1.6-0.4,2.2c-1.4-1.2-1-2.9-1.4-4.5
			c-1.2-6.5-4.5-12-7.8-17.8c-3.3-5.7-4.9-11.4-4.1-18c0.4-0.2,0.8,0,0.4,0.4c0,6.9,2,13.1,5.9,19c2.4,3.3,3.7,7.3,5.5,11
			c0.8,0.6,0.6,1.4,0.6,2.2C-325.8,529.1-326.8,530.3-326,531.3z"/>
	</g>
	<g>
		<path class="st18" d="M-389.1,498.7c-2.2,4.1-5.7,6.7-9.2,9.4c-2,1.4-4.1,2.9-6.3,3.9c-6.9,3.3-13.5,6.9-19.4,11.8
			c0-1,0.8-1.6,1.4-2.2c3.3-2.9,6.7-5.5,10.8-7.3c8.6-3.7,16.1-8.6,22.5-15.3C-389.3,498.7-389.1,498.7-389.1,498.7z"/>
	</g>
	<g>
		<path class="st7" d="M-401.1,642c1.6-0.8,3.5-0.2,5.1-0.4c2.2-0.2,4.5,0.2,6.7-0.6c3.7,0.4,7.1,0,10.8,0.4
			c0.4,0.2,0.6,0.4,0.8,0.6c-1.6,1.2-3.5,1.6-5.5,1.2c-1.2-0.2-2.7,0-4.1,0c0,1,1,1.4,1.2,2c-1,0.4-1.8,0.4-2.9,0
			c-3.5,0.4-5.9-2.7-9.4-3.1C-399.3,642.4-400.1,642.2-401.1,642z"/>
	</g>
	<g>
		<path class="st19" d="M-341.1,606.7c-0.2,0-0.4,0-0.6,0c-0.2-5.1-4.7-15.7-6.9-15.7c0.2-1,0.6-2,1.6-2.2c1.2-0.2,1.8,0.8,2.2,1.8
			c1.4,3.9,2.9,7.6,4.3,11.4c0.4,0.8,0.4,2,1.6,2.4c-0.2,0.2-0.4,0.4-0.4,0.8C-340.1,605.4-340.3,606.3-341.1,606.7z"/>
	</g>
	<g>
		<path class="st1" d="M-305.6,564.2c0.8-4.9,2.2-9.6,3.1-14.7c1.6-12.7,2-25.1-1.6-37.4c-0.2-0.4-0.2-0.8-0.2-1.4
			c2,2.9,2,6.3,2.7,9.6c0.8,4.9,1.4,10,1.2,15.1c-0.6,9-1.6,18.2-4.1,26.9C-304.7,563.2-304.7,564-305.6,564.2z"/>
	</g>
	<g>
		<path class="st19" d="M-411.3,612.2c-0.2,0-0.4,0-0.6,0c-3.1,2.9-6.3,5.5-10.6,6.3c-0.8,0.2-2,0.8-2.4-0.4s1-1.2,1.8-1.4
			c5.3-1.2,9.2-4.3,12.5-8.4c0.8-1,1.6-2.2,3.3-3.3C-408.2,607.9-410.7,609.5-411.3,612.2z"/>
	</g>
	<g>
		<path class="st20" d="M-317.2,517.1c1.2,6.7,3.9,13.3,4.7,20c0.8,5.1,0.8,10-0.8,14.9c-0.4,0.2-0.6,0.2-0.8-0.2
			c-0.6-1.2-0.2-2.2,0.8-3.3c1-8.8-1.2-16.9-3.5-25.3c-0.4-1.8-1-3.7-1-5.7C-318,517.1-317.8,516.8-317.2,517.1z"/>
	</g>
	<g>
		<path class="st21" d="M-319.8,527.1c0.2,1,0.4,2.2,0.8,3.3c0.8,0.4,0.6,1.2,0.8,2c0.2,0.4,0.4-0.4,0.2,0c-0.6-1,0.2-2-0.4-3.1
			c-0.4-5.3-2-10.2-3.3-15.3c-0.2-1.2-0.4-2.2-0.6-3.5c-0.2-0.6,0-0.6,0.4-0.6c2.2,8.6,5.3,16.9,5.1,26.1c-0.8,0-0.8,0.8-1,1.2
			c-1.4-3.3-2.2-6.5-2.2-10C-320.3,526.8-320.1,526.8-319.8,527.1z"/>
	</g>
	<g>
		<path class="st20" d="M-406.2,509.1c-8.6,5.1-16.9,10.8-24.3,17.4c-0.6,0.2-0.8-0.2-0.6-0.6c5.3-5.5,11.6-9.8,18.2-13.9
			c2-1.2,4.1-2.2,6.3-3.5C-406.2,508.3-406.2,508.7-406.2,509.1z"/>
	</g>
	<g>
		<path class="st22" d="M-390.1,505.2c7.8-5.7,16.3-9.6,22-18.2C-368.8,492.1-383.7,504.2-390.1,505.2z"/>
	</g>
	<g>
		<path class="st21" d="M-318.6,546c0.8-2.7,0.4-5.3,0.6-7.8c1.4,0,0.2,2,1.6,2c1.2,2.7,1.8,5.5,2.2,8.4c0.4,1,0.2,2,0.2,3.3
			c-0.2,0.4-0.4,0.4-0.8,0.2c-0.8-2.9-0.8-5.9-2-9c-1,4.3-1,8.6-3.1,12.5c-0.4-0.4-0.4-0.8-0.2-1.4c0.2-1.6,0.4-3.3,0.6-4.9
			c0-0.2,0-0.2,0-0.4C-319.2,547.9-319.6,546.7-318.6,546z"/>
	</g>
	<g>
		<path class="st23" d="M-424,505.8c3.5-3.1,6.7-6.1,11.2-7.8c0.6-0.2,0.6,0,0.6,0.4c-3.5,2.2-6.9,4.5-10,7.3
			c-2.9,2.9-4.7,6.7-7.6,9.6c0.8-3.5,3.3-5.7,4.9-8.8C-425,506.2-424.6,506-424,505.8z"/>
	</g>
	<g>
		<path class="st23" d="M-408.5,502.4c-6.5,4.1-12.7,8.6-18,14.3c4.5-6.3,10.6-11,17.4-14.7C-408.5,501.5-408.5,501.9-408.5,502.4z"
			/>
	</g>
	<g>
		<path class="st24" d="M-481.9,640.6c-0.8,0-1-0.4-1.2-1c0.8-2.4,0.8-4.9,1.6-7.1c0.4-0.4,0.8-0.8,1-1.2c0.4-0.4,0.6-1,1.2-0.6
			c0.4,0.4,0,0.8,0,1.2c-0.2,1-1.2,2.2,0,3.3c0.2,0.4,0,0.8-0.6,0.6C-480.9,636.9-480.7,639.1-481.9,640.6z"/>
	</g>
	<g>
		<path class="st20" d="M-430.7,532c2.7-2.2,5.3-4.5,8-6.5c0.6-0.2,0.6,0,0.4,0.4c-0.2,0.2-0.2,0.4-0.4,0.6c0.2,1.4-1.4,1.2-1.8,2.2
			c-4.9,3.3-8.2,7.8-11.4,13.3c0-2.9,1.6-4.1,2.7-5.7C-433.8,533.8-431.3,533.4-430.7,532z"/>
	</g>
	<g>
		<path class="st25" d="M-427.8,495c3.9-2.7,7.6-5.9,12.2-7.6c0.6-0.4,0.6,0,0.6,0.4c-5.5,2.7-10.2,6.3-14.9,10.2
			c-0.6,0.2-0.8,0-0.6-0.6c0.6-0.6,1-1,1.6-1.6C-428.7,495.4-428.5,495-427.8,495z"/>
	</g>
	<g>
		<path class="st1" d="M-576.7,533.4c-7.8-2.4-15.7-2.9-23.9-1.8c3.5-1.2,7.1-1.4,10.8-1c3.9,0.2,7.8,0.8,11.4,1.8
			C-577.7,532.4-576.9,532.4-576.7,533.4z"/>
	</g>
	<g>
		<path class="st14" d="M-380.1,646.1c3.3-1.2,6.3-3.3,10-3.3c-0.4,0.6-0.8,1-1,1.6c-0.6,0.8-1.4,0.8-2.2,1.2l0,0
			c-0.8,0.6-2-0.2-2.9,0.6l0,0C-377.4,646.5-378.6,646.7-380.1,646.1z"/>
	</g>
	<g>
		<path class="st26" d="M-341.1,606.7c0-1,0.6-1.6,1.6-1.6c0.8,2.2,0.6,4.5,1.6,6.7c0.4,0.2,0.2,0.4-0.2,0.4
			c-0.2,0.2-0.4,0.4-0.4,0.6c-0.2,0.4-0.6,0.4-1,0.2C-338.8,610.6-340.7,608.7-341.1,606.7z"/>
	</g>
	<g>
		<path class="st27" d="M-536,610.6c-1.8-0.4-0.8-2-1-2.9c0-0.2,0-0.6,0-0.8c0.8-1,0.4-2.4,1.6-3.3c1,0.4,0.4,1.4,0.6,2
			C-534.8,607.3-535.2,608.9-536,610.6z"/>
	</g>
	<g>
		<path class="st23" d="M-335.6,523.2c0.2,0.6,0.2,1.4,0.6,1.8c2,2.2,1.6,4.9,1.8,7.6c0.2,0.6,0.6,1-0.4,1c-0.8-3.1-0.8-6.3-2.9-8.8
			c-0.4-0.4,0.2-0.8,0.4-1.2C-336.2,523.2-336.2,523-335.6,523.2z"/>
	</g>
	<g>
		<path class="st1" d="M-334.3,609.3c3.5-3.5,7.1-7.1,10.6-10.6c0.2,1.2-0.8,1.8-1.6,2.4C-328.4,603.8-330.5,607.5-334.3,609.3z"/>
	</g>
	<g>
		<path class="st1" d="M-404.6,641.2c0.4,0.2,0.8,0.4,1.2,0.6c-5.5,0.4-11.2-0.4-16.7-0.6c-0.4,0-0.8-0.4-1.2-0.6
			C-415.6,640.8-410.1,641-404.6,641.2z"/>
	</g>
	<g>
		<path class="st28" d="M-412.3,498.5c-0.2-0.2-0.4-0.4-0.6-0.4c3.5-2,7.1-4.1,11.2-5.5C-405,495.2-408.7,496.6-412.3,498.5z"/>
	</g>
	<g>
		<path class="st1" d="M-710.2,564.8c-5.3,0-10.8,0-16.1,0c0.8-1,1.8-0.6,2.9-0.6C-719,564.6-714.7,563.6-710.2,564.8z"/>
	</g>
	<g>
		<path class="st29" d="M-335.6,523.2c-0.2,0.2-0.2,0.4-0.4,0.4c-0.2,0.2-0.4,0.2-0.6,0c-0.6-3.5-2.9-6.1-3.9-9.4
			c0.2-0.2,0.4-0.2,0.6,0C-338.4,517.1-336.8,519.9-335.6,523.2z"/>
	</g>
	<g>
		<path class="st30" d="M-326,535.4c0.2-0.8-0.4-1.6,0.4-2.2c-0.2,1,0.2,1.8,0.4,2.7c-1,2.4,0,5.1-0.8,7.8
			C-325.4,540.9-327,538.1-326,535.4z"/>
	</g>
	<g>
		<path class="st31" d="M-430.7,532c0.2,2-2.2,2.4-2.7,4.1c-1-0.2-1.4,0.8-2,1c-0.2-0.2-0.4-0.4,0-0.8
			C-434.4,534.6-432.9,532.8-430.7,532z"/>
	</g>
	<g>
		<path class="st1" d="M-743.5,566.5c-4.1,0.8-8.4,0.8-12.5,0C-751.8,566.5-747.8,566.5-743.5,566.5z"/>
	</g>
	<g>
		<path class="st1" d="M-727.5,568.7c3.9-0.8,8-0.8,11.8,0C-719.6,568.7-723.7,568.7-727.5,568.7z"/>
	</g>
	<g>
		<path class="st32" d="M-322.3,509.7c-0.2,0.2-0.4,0.4-0.4,0.6c-1-2.7-1.6-5.1-1.2-8C-323.3,504.8-322.7,507.3-322.3,509.7z"/>
	</g>
	<g>
		<path class="st33" d="M-316.4,540.1c-0.2,0.4-0.2,0.8-0.4,1c-0.4,0.2-0.6-0.2-0.6-0.6c-0.2-0.8,0.2-1.6-0.4-2.2c0-0.4,0-0.8-0.2-1
			c0.2-0.6-0.4-1.8,1-1.2C-316.8,537.3-317.2,538.9-316.4,540.1z"/>
	</g>
	<g>
		<path class="st1" d="M-379.5,460.7c-3.5,0-7.1,0-10.6,0C-386.6,459.7-382.9,459.9-379.5,460.7z"/>
	</g>
	<g>
		<path class="st34" d="M-430.7,497.5c0.2,0.2,0.4,0.4,0.6,0.6c-1.4,1.2-2.7,2.7-3.9,3.9c-0.2-0.2-0.2-0.6,0-0.8
			C-433.4,499.5-431.9,498.5-430.7,497.5z"/>
	</g>
	<g>
		<path class="st31" d="M-397.4,496.2c-2,1-4.1,2.2-6.1,3.3c-0.2,0-0.4-0.2-0.6-0.4c2-1,4.1-2.2,6.1-3.3
			C-397.2,495.4-397.2,495.8-397.4,496.2z"/>
	</g>
	<g>
		<path class="st1" d="M-308.4,572c1-2.7,2-5.1,2.9-7.8C-305.8,567.1-306.2,569.9-308.4,572z"/>
	</g>
	<g>
		<path class="st1" d="M-411.7,662.2c1.4,2.4,2,5.1,2.9,7.8C-410.5,667.7-411.3,665.1-411.7,662.2z"/>
	</g>
	<g>
		<path class="st35" d="M-392.3,473.6c2.7-1,5.5-0.4,8.4-0.6c0.2,0.2,0.2,0.2,0.2,0.4c0,0.2-0.2,0.2-0.2,0.2
			c-2.9,0.2-5.5,0.4-8.4,0.6c-0.2-0.2-0.2-0.2-0.2-0.2C-392.3,473.6-392.3,473.6-392.3,473.6z"/>
	</g>
	<g>
		<path class="st36" d="M-514.2,551.6c0.4,1,2.9,0.2,2.2,2c-1.2-0.2-3.9,1.2-2.7-2C-514.6,551.6-514.4,551.6-514.2,551.6z"/>
	</g>
	<g>
		<path class="st37" d="M-455.8,578.7c0,2.7,0,5.1,0,7.8c-1-1-1-2.4-1-3.9C-455.6,581.6-457,579.7-455.8,578.7z"/>
	</g>
	<g>
		<path class="st38" d="M-424.6,528.5c0.2-1.2,1.6-1.2,1.8-2.2c1.4,0.4,2.4-1.2,4.5-0.8C-420.7,526.6-422.7,527.7-424.6,528.5z"/>
	</g>
	<g>
		<path class="st39" d="M-415.2,487.9c-0.2-0.2-0.4-0.4-0.6-0.4c2-1,3.9-2,6.3-1.8C-411.3,486.4-413.1,487-415.2,487.9z"/>
	</g>
	<g>
		<path class="st40" d="M-404,499.1c0.2,0.2,0.4,0.4,0.6,0.4c-1.6,1-3.3,1.8-5.1,2.9c-0.2-0.2-0.4-0.4-0.6-0.4
			C-407.4,500.7-405.6,499.9-404,499.1z"/>
	</g>
	<g>
		<path class="st1" d="M-380.1,646.1c1.2,0,2.7,0,3.9,0c-2.9,1-5.9,1-9,0C-383.3,646.1-381.7,646.1-380.1,646.1z"/>
	</g>
	<g>
		<path class="st1" d="M-427.4,647.3c-1.6,0-3.5,0-5.3,0c1-1,2-2,2.9-2.9c0.2,0.8-0.4,1.4-0.6,2C-429.5,647.1-428,646.1-427.4,647.3
			z"/>
	</g>
	<g>
		<path class="st41" d="M-317.2,517.1c-0.2,0.2-0.4,0.4-0.4,0.6c-1-2.4-0.4-4.9-0.2-7.3C-317.6,512.6-317.8,514.8-317.2,517.1z"/>
	</g>
	<g>
		<path class="st1" d="M-745.9,596.1c-3.1-0.2-6.1,0.4-9-0.6C-751.8,595.7-748.8,594.8-745.9,596.1z"/>
	</g>
	<g>
		<path class="st39" d="M-340.1,514.2c-0.2,0-0.4,0-0.6,0c-1.2-1.2-1.8-2.9-2.7-4.5c-0.2-0.2-0.2-0.6,0-0.8
			C-341.9,510.5-340.9,512.4-340.1,514.2z"/>
	</g>
	<g>
		<path class="st42" d="M-336.8,523.6c0.2,0,0.4,0,0.6,0c-0.2,0.4-0.4,0.8-0.6,1.2c-1.4-1.2-2.7-2.4-3.9-3.7
			C-338.8,521.1-338,522.8-336.8,523.6z"/>
	</g>
	<g>
		<path class="st1" d="M-736.9,596.7c-2.9-0.2-5.7,0.4-8.4-0.6C-742.5,596.3-739.6,595.2-736.9,596.7z"/>
	</g>
	<g>
		<path class="st1" d="M-679.4,569.3c-2.7,1-5.3,0.2-8,0.4C-684.9,568.7-682,569.5-679.4,569.3z"/>
	</g>
	<g>
		<path class="st1" d="M-544.8,546.7c-2-0.8-4.3-1-6.1-2.4C-548.7,544.6-546.5,544.8-544.8,546.7z"/>
	</g>
	<g>
		<path class="st1" d="M-517.1,551.3c-2.7-0.2-5.3,0.4-8-0.4C-522.4,551.1-519.5,550.3-517.1,551.3z"/>
	</g>
	<g>
		<path class="st43" d="M-342.7,519.1c-1-1.2-2-2.2-2.9-3.3c-0.2,0.2-0.2,0.2-0.4,0.4C-345,517.1-343.7,518.1-342.7,519.1z"/>
	</g>
	<g>
		<path class="st1" d="M-735.3,569.3c2.4-1,4.9-0.4,7.3-0.6C-730.4,569.9-732.9,568.9-735.3,569.3z"/>
	</g>
	<g>
		<path class="st1" d="M-743.1,569.9c2.4-1,4.9-0.4,7.3-0.6C-738.2,570.5-740.6,569.5-743.1,569.9z"/>
	</g>
	<g>
		<path class="st44" d="M-323.1,539.7c0.2-1.2-1.4-2.7,0-3.9c0.8,0.4,1,1.4,1.4,2.2l0,0C-322.7,538.1-322.5,539.3-323.1,539.7z"/>
	</g>
	<g>
		<path class="st45" d="M-399.9,481.9c-1.4,1.2-3.1,1.2-4.7,2c-0.2-0.2-0.2-0.4-0.4-0.8c1.4-0.4,2.9-1,4.3-1.4
			C-400.5,481.5-400.1,481.7-399.9,481.9z"/>
	</g>
	<g>
		<path class="st1" d="M-304.3,510.9c-1-1.6-1.8-3.7-2.2-5.7C-305.1,506.8-304.5,508.7-304.3,510.9z"/>
	</g>
	<g>
		<path class="st1" d="M-311.3,578.7c0.6-1.8,1.4-3.5,2.4-5.1C-308.8,575.6-309.6,577.3-311.3,578.7z"/>
	</g>
	<g>
		<path class="st1" d="M-564.4,538.3c-1.6-0.6-3.5-1.2-5.1-2.4C-567.3,536-565.7,536.6-564.4,538.3z"/>
	</g>
	<g>
		<path class="st1" d="M-404.6,666.7c-0.8-1.6-1.4-3.3-1.6-5.1C-404.8,663.2-404.6,664.9-404.6,666.7z"/>
	</g>
	<g>
		<path class="st1" d="M-423.6,476.8c-0.8,1.4-1.8,2.4-3.3,3.3C-426.2,478.5-425.2,477.4-423.6,476.8z"/>
	</g>
	<g>
		<path class="st46" d="M-412.3,521.9c-0.8,1.4-2,1.8-3.5,1.6C-414.6,523.2-413.6,522.6-412.3,521.9z"/>
	</g>
	<g>
		<path class="st1" d="M-753.7,598.7c2,0.2,4.1-0.4,6.1,0.6C-749.6,599.1-751.6,599.9-753.7,598.7z"/>
	</g>
	<g>
		<path class="st23" d="M-328.8,500.9c-0.2-0.4-0.4-0.8-0.4-1.2c-0.2-1,0.2-2,0.8-3.5C-328.2,498.3-328,499.5-328.8,500.9z"/>
	</g>
	<g>
		<path class="st47" d="M-406.2,509.1c-0.2-0.2-0.4-0.4-0.6-0.4c1.2-0.8,2.7-1.6,3.9-2.4c0.2,0.2,0.2,0.2,0.2,0.4
			c0,0.2-0.2,0.2-0.2,0.2C-404,507.7-405.2,508.3-406.2,509.1z"/>
	</g>
	<g>
		<path class="st1" d="M-306.6,505.4c-1-1.4-1.8-2.9-2.2-4.5C-307.2,501.9-306.6,503.6-306.6,505.4z"/>
	</g>
	<g>
		<path class="st1" d="M-339.2,612.8c0.4,0,0.6-0.2,1-0.2c0.4,1.2,0.4,1.2-2.2,1.6C-340.1,613.8-339.9,613.4-339.2,612.8z"/>
	</g>
	<g>
		<path class="st48" d="M-338.8,495.8c-0.2-0.2-0.4-0.4-0.4-0.4c0.2-1.2,0.4-2.2,0.6-3.5C-338.2,493.2-337.8,494.6-338.8,495.8z"/>
	</g>
	<g>
		<path class="st49" d="M-392.3,473.6c0,0.2,0,0.2,0,0.4c-1.4,0.2-3.1,0.4-4.9,0.4C-395.6,473.2-393.8,473.6-392.3,473.6z"/>
	</g>
	<g>
		<path class="st50" d="M-333.7,533.6c0.2-0.4,0.4-0.8,0.4-1c1,1.2,0.4,2.7,0.6,3.9c0.2,0.6,0,0.8-0.6,0.4
			C-333.3,535.8-333.5,534.6-333.7,533.6z"/>
	</g>
	<g>
		<path class="st1" d="M-315.6,587.1c0.4-1.4,1.2-2.9,2.2-4.1C-313.5,584.6-313.9,586.1-315.6,587.1z"/>
	</g>
	<g>
		<path class="st1" d="M-726.3,564.8c-1.8,1-3.7,0.4-5.5,0.6C-730.2,564.2-728.2,565-726.3,564.8z"/>
	</g>
	<g>
		<path class="st1" d="M-743.1,599.9c1.8,0.2,3.9-0.4,5.7,0.6C-739.2,600.1-741.2,601.2-743.1,599.9z"/>
	</g>
	<g>
		<path class="st1" d="M-337.8,612.2c0-0.2,0.2-0.4,0.2-0.4c1.2-0.4,1.8-2,3.3-2.2C-335.2,610.6-336,612-337.8,612.2z"/>
	</g>
	<g>
		<path class="st43" d="M-366.2,481.3c0.2,0.8-0.4,2,0.6,2.7c0.4,0.4,0.2,0.6-0.2,0.8c-0.4,0-0.6,0.2-1,0.4c-0.8-1.2,0.4-2.7,0-3.9
			C-366.4,481.1-366.4,481.1-366.2,481.3z"/>
	</g>
	<g>
		<path class="st1" d="M-319.4,593.2c0.4-1.4,1.2-2.4,2.2-3.5C-317.4,591.4-318,592.6-319.4,593.2z"/>
	</g>
	<g>
		<path class="st1" d="M-737.3,566c-1.6,0.8-3.5,0.4-5.1,0.4C-740.8,565.4-739.2,566.3-737.3,566z"/>
	</g>
	<g>
		<path class="st51" d="M-384,473.6c0-0.2,0-0.4,0-0.4c1-1,2.2-0.4,3.3-0.2C-381.7,473-382.9,473.2-384,473.6z"/>
	</g>
	<g>
		<path class="st52" d="M-321.5,538.1c0.8,1,1,2.2,1.4,3.5c0,0.2-0.2,0.4-0.4,0.4C-321.3,540.7-321.7,539.5-321.5,538.1
			L-321.5,538.1z"/>
	</g>
	<g>
		<path class="st53" d="M-420.9,485.8c1.2-1.2,1.8-2,2.7-2.7C-418.5,484.6-419.1,485.4-420.9,485.8z"/>
	</g>
	<g>
		<path class="st1" d="M-445.8,509.3c-1.6-0.2-3.3-0.2-4.9-0.2C-449.1,508.5-447.2,508.1-445.8,509.3z"/>
	</g>
	<g>
		<path class="st1" d="M-527.5,550.9c-1.6,0-3.3,0-5.1,0C-530.9,549.9-529.3,549.9-527.5,550.9z"/>
	</g>
	<g>
		<path class="st1" d="M-407.4,658.9c-1-1-1.4-2.4-1.8-3.9C-407.8,656.1-407.2,657.3-407.4,658.9z"/>
	</g>
	<g>
		<path class="st1" d="M-769.2,558.9c-1.4-0.4-3.1-0.8-4.5-1.2C-772.1,557.7-770.4,557.1-769.2,558.9z"/>
	</g>
	<g>
		<path class="st54" d="M-420.7,501.3c-0.6,1.2-1.6,2.2-2.9,2.9C-423.2,502.6-422.1,501.7-420.7,501.3z"/>
	</g>
	<g>
		<path class="st55" d="M-319.4,544.2c0,0.6,0.2,1,0.2,1.6c0.2,1,0.4,2.2-0.2,3.5l0,0c-1-1.6-0.4-3.3-0.6-5.1
			C-319.6,544-319.6,544-319.4,544.2z"/>
	</g>
	<g>
		<path class="st56" d="M-420.9,486.8c-0.8,0.6-1.6,1-2.4,1.6c0.2-1,1-1.4,1.8-2C-421.3,486.6-421.1,486.6-420.9,486.8z"/>
	</g>
	<g>
		<path class="st57" d="M-422.3,525.8c-0.2-0.2-0.4-0.2-0.4-0.4c0.8-0.8,1.4-1.6,3.3-1.8C-420.7,524.6-421.3,525.4-422.3,525.8z"/>
	</g>
	<g>
		<path class="st1" d="M-553.8,543.2c-1.4-0.2-2.9-0.8-3.9-1.6C-556.1,541.3-554.8,542-553.8,543.2z"/>
	</g>
	<g>
		<path class="st58" d="M-397.2,490.1c0.4-1.6,2-1.8,3.3-2.2C-394.6,489.3-396,489.5-397.2,490.1z"/>
	</g>
	<g>
		<path class="st59" d="M-396.8,488.1c-1,1-2.2,1.6-3.9,1.6C-399.5,488.7-398.2,488.1-396.8,488.1z"/>
	</g>
	<g>
		<path class="st1" d="M-783.7,619.3c1.6,0,3.3,0,4.9,0C-780.4,620.1-782.1,620.4-783.7,619.3z"/>
	</g>
	<g>
		<path class="st1" d="M-731.8,565.4c-1.6,0.8-3.3,0.4-5.1,0.6C-735.3,564.8-733.7,565.6-731.8,565.4z"/>
	</g>
	<g>
		<path class="st45" d="M-397.4,496.2c-0.2-0.2-0.4-0.4-0.6-0.4c1-0.6,1.8-1,2.9-1.6c0.2-0.2,0.6-0.2,0.8,0
			C-395.2,495.2-396.2,495.6-397.4,496.2z"/>
	</g>
	<g>
		<path class="st1" d="M-754.7,569.3c1.4,0.2,3.1-0.4,4.5,0.4C-751.6,569.5-753.3,570.3-754.7,569.3z"/>
	</g>
	<g>
		<path class="st1" d="M-731.4,597.1c-1.4-0.2-3.1,0.4-4.5-0.4C-734.3,596.9-732.7,596.1-731.4,597.1z"/>
	</g>
	<g>
		<path class="st60" d="M-431.7,527.7c-0.4,0.8-1,1.4-2.7,2.2c1-1.2,1.4-2,2-2.9C-431.9,527.1-431.9,527.3-431.7,527.7z"/>
	</g>
	<g>
		<path class="st1" d="M-313.3,494.2c-1-0.8-1.8-1.6-2.4-2.9C-314.3,491.9-313.3,492.8-313.3,494.2z"/>
	</g>
	<g>
		<path class="st1" d="M-772.5,561.6c1.4,0,2.7,0.4,3.3,1.6C-770.4,562.8-771.6,562.4-772.5,561.6z"/>
	</g>
	<g>
		<path class="st1" d="M-416.8,646.7c-1.4,0-2.9,0-4.5-0.2C-419.7,645.9-418.3,645.7-416.8,646.7z"/>
	</g>
	<g>
		<path class="st61" d="M-401.1,491.9c1-0.8,2-1.4,3.5-1.6C-398.7,491.3-399.7,492.1-401.1,491.9z"/>
	</g>
	<g>
		<path class="st1" d="M-794.3,613.2c-1.4,0-2.9,0-4.5,0C-797.2,612.4-795.7,612.4-794.3,613.2z"/>
	</g>
	<g>
		<path class="st62" d="M-379.3,595.7c-0.2,0.4-0.4,0.6-0.8,0.6c-0.6-0.2-0.6-0.6-0.6-1c0-0.2,0-0.6,0.4-0.4
			C-379.7,594.8-379.3,595.2-379.3,595.7z"/>
	</g>
	<g>
		<path class="st63" d="M-362.1,467.2c-0.6-0.4-1.4-0.8-2.4-1.4c1.6-0.2,2.7,0.2,3.5,1C-361.5,467-361.7,467-362.1,467.2z"/>
	</g>
	<g>
		<path class="st64" d="M-401.1,475.2c-1,0.4-2.2,0.8-3.3,1c-0.2-0.2-0.2-0.2-0.2-0.4c0-0.2,0.2-0.2,0.2-0.2c1-0.8,2.2-0.8,3.3-1
			C-401.1,474.8-400.9,475-401.1,475.2L-401.1,475.2z"/>
	</g>
	<g>
		<path class="st23" d="M-329.4,502.4c0,1.6,0,3.3,0,4.7C-330.1,505.4-330.1,504-329.4,502.4z"/>
	</g>
	<g>
		<path class="st1" d="M-461.9,528.1c-0.2,1.6,0.2,3.1-0.4,4.5C-462.1,531.1-463,529.5-461.9,528.1z"/>
	</g>
	<g>
		<path class="st1" d="M-414.6,680.6c0.6-0.6,1-1,1.6-1.6C-411.7,681.2-413.6,680.4-414.6,680.6z"/>
	</g>
	<g>
		<path class="st65" d="M-424,505.8c-0.4,0.4-0.6,0.8-1,1c-1.2-1.4,0.2-1.6,1-2.2C-424,505-424,505.4-424,505.8z"/>
	</g>
	<g>
		<path class="st66" d="M-408.7,477.2c-0.4,1-1.2,1.2-2.2,1.6C-410.7,477.4-409.5,477.6-408.7,477.2z"/>
	</g>
	<g>
		<path class="st1" d="M-508.3,545.4c-0.6,1-1.4,2-2.7,2.2C-510.3,546.7-509.5,545.6-508.3,545.4z"/>
	</g>
	<g>
		<path class="st67" d="M-366.2,481.3c-0.2,0-0.4,0-0.6,0c-0.8-0.8-0.6-1.8-0.4-3.5C-366.6,479.5-366.4,480.3-366.2,481.3z"/>
	</g>
	<g>
		<path class="st68" d="M-378.4,488.7c0.8-1.2,1.4-1.8,2.4-2C-376.4,487.4-377,488.3-378.4,488.7z"/>
	</g>
	<g>
		<path class="st1" d="M-352.3,623.8c0.8-1,1.6-1.8,2.9-2.2C-350.1,622.6-350.7,623.8-352.3,623.8z"/>
	</g>
	<g>
		<path class="st1" d="M-441.3,508.1c0,3.1-0.2,3.3-1.6,2.2C-441.5,510.3-442.1,508.5-441.3,508.1z"/>
	</g>
	<g>
		<path class="st1" d="M-408.5,670.6c1,0.4,2.2,0.6,3.3-0.2C-406.2,672.4-407.2,672.2-408.5,670.6z"/>
	</g>
	<g>
		<path class="st1" d="M-349.4,621.6c0.6-1,1.6-1.8,2.9-2.4C-347.2,620.4-348,621.4-349.4,621.6z"/>
	</g>
	<g>
		<path class="st35" d="M-406,484.6c-0.6,0.2-1.4,0.4-2.7,0.6C-407.8,484-407,483.8-406,484.6z"/>
	</g>
	<g>
		<path class="st1" d="M-709.2,610.6c1.4,0,2.9,0,4.5,0c0.2,0.2,0.2,0.2,0.2,0.4s0,0.2-0.2,0.2
			C-706.1,610.8-707.7,611.6-709.2,610.6z"/>
	</g>
	<g>
		<path class="st69" d="M-318.6,529.1c0.8,1,0.4,2.2,0.4,4.1c-0.4-1.4-0.6-2.2-0.8-3.1C-319,529.9-318.8,529.5-318.6,529.1z"/>
	</g>
	<g>
		<path class="st1" d="M-429.3,643.2c0.4-1.2,0.8-2.7,1.4-3.9C-428,640.8-427.6,642.4-429.3,643.2z"/>
	</g>
	<g>
		<path class="st70" d="M-416.2,521.3c-0.8,0.4-1.4,1.4-3.1,1.4c1.2-1,2-1.8,3.1-2c0.2,0.2,0.2,0.2,0.2,0.4L-416.2,521.3z"/>
	</g>
	<g>
		<path class="st1" d="M-612,534.2c-1.2,0.8-2.7,1-4.1,1C-615.1,534.4-613.6,534.2-612,534.2z"/>
	</g>
	<g>
		<path class="st1" d="M-746.9,599.3c1.4,0.2,2.7-0.4,3.9,0.4C-744.3,599.7-745.7,600.3-746.9,599.3z"/>
	</g>
	<g>
		<path class="st71" d="M-314.3,552c0-1,0-2.2,0-3.5c0.4,0,0.6,0,1,0c-0.4,1-0.6,2.2-0.4,3.5C-313.9,552.2-314.1,552.2-314.3,552z"
			/>
	</g>
	<g>
		<path class="st1" d="M-779.8,616.7c-1.2,0.8-2.7,0.8-3.9,0C-782.5,616.7-781.2,616.7-779.8,616.7z"/>
	</g>
	<g>
		<path class="st1" d="M-341.7,641.2c0.2-1,0.4-2.2,0.4-3.3C-339.7,639.1-341.1,640-341.7,641.2z"/>
	</g>
	<g>
		<path class="st1" d="M-423.4,647.3c-1.4,0.8-2.7,0.8-4.1,0C-426,647.3-424.6,647.3-423.4,647.3z"/>
	</g>
	<g>
		<path class="st1" d="M-361.7,644.4c1.4,0.2,2.9-0.4,4.1,0.6C-359,644.9-360.5,645.5-361.7,644.4z"/>
	</g>
	<g>
		<path class="st72" d="M-399.9,481.9c-0.2,0-0.4,0-0.8,0c1-0.8,2-1,3.3-1l0,0C-398,481.5-398.9,481.9-399.9,481.9z"/>
	</g>
	<g>
		<path class="st73" d="M-390.7,490.7c0.4-0.8,1-1.4,2-2c0,1.2-0.8,1.6-1.4,2C-390.3,491.1-390.5,491.1-390.7,490.7z"/>
	</g>
	<g>
		<path class="st74" d="M-409.5,494.2c-0.6,1-1.6,1.4-2.9,1.6C-411.7,494.6-410.7,494.4-409.5,494.2z"/>
	</g>
	<g>
		<path class="st75" d="M-389.1,498.7c-0.2,0-0.2,0-0.2,0c0.2-1,1-1.4,1.8-2.2C-387.6,497.7-388,498.3-389.1,498.7z"/>
	</g>
	<g>
		<path class="st1" d="M-308.8,500.9c-1-0.6-1.4-1.8-1.8-2.9C-309.2,498.5-309,499.7-308.8,500.9z"/>
	</g>
	<g>
		<path class="st76" d="M-348.2,500.9c1,1,1.6,1.6,1.4,2.7C-347.6,503.2-347.8,502.4-348.2,500.9z"/>
	</g>
	<g>
		<path class="st49" d="M-402.9,506.8c0-0.2,0-0.4,0-0.6c0.4-0.6,1-1.4,2.2-1.4C-401.3,505.8-401.9,506.4-402.9,506.8z"/>
	</g>
	<g>
		<path class="st77" d="M-351.7,506.2c1,1,1.6,1.6,1.6,2.9C-351.1,508.3-351.5,507.3-351.7,506.2z"/>
	</g>
	<g>
		<path class="st78" d="M-775.5,586.1c-0.2,0.4-0.4,0.8-0.4,1c-0.8-0.6-0.4-1.6-0.8-2.7C-775.7,584.6-775.7,585.4-775.5,586.1z"/>
	</g>
	<g>
		<path class="st1" d="M-317.2,589.9c0.2-1,0.8-2,1.6-2.9C-315.6,588.3-316,589.3-317.2,589.9z"/>
	</g>
	<g>
		<path class="st1" d="M-322.9,597.7c0.4-0.8,1-1.6,1.8-2.2C-321.1,596.7-321.7,597.3-322.9,597.7z"/>
	</g>
	<g>
		<path class="st79" d="M-357.8,471.9c0.2-0.2,0.4-0.4,0.6-0.6c0.6,0.2,1,0.6,1.4,1.4C-356.6,473-357.2,472.3-357.8,471.9z"/>
	</g>
	<g>
		<path class="st1" d="M-691.4,573.2c-1,0.4-1,0.4-2.2-1C-692.6,572-692,572.8-691.4,573.2z"/>
	</g>
	<g>
		<path class="st1" d="M-340.1,473.8c-1-0.4-2-0.4-2.7-1.4C-341.7,472.5-340.5,472.5-340.1,473.8z"/>
	</g>
	<g>
		<path class="st1" d="M-419.7,473.6c-0.4,0.8-1,1.6-2.2,1.6C-421.3,474.4-420.7,473.6-419.7,473.6z"/>
	</g>
	<g>
		<path class="st32" d="M-401.1,475.2c0-0.2,0-0.4,0-0.4c0.8-0.2,1.6-0.2,2.4-0.4C-399.3,475.6-400.3,475-401.1,475.2z"/>
	</g>
	<g>
		<path class="st80" d="M-343.1,509.1c0,0.2,0,0.4,0,0.8c-0.6-0.6-1.2-1.2-1-2.2C-343.5,507.7-343.3,508.3-343.1,509.1z"/>
	</g>
	<g>
		<path class="st1" d="M-727.5,597.7c-1-0.4-2.4,0.2-3.5-0.6C-729.8,597.3-728.4,596.5-727.5,597.7z"/>
	</g>
	<g>
		<path class="st1" d="M-776.5,561.4c1.2-0.8,2.2-0.8,3.5,0C-774.1,561.4-775.3,561.4-776.5,561.4z"/>
	</g>
	<g>
		<path class="st81" d="M-435.2,503.6c-0.4,0.4-0.8,1-1.4,1.8c-0.2-1.2,0.2-1.8,0.8-2.2C-435.4,503.2-435.4,503.4-435.2,503.6z"/>
	</g>
	<g>
		<path class="st55" d="M-319.4,544.2c-0.2,0-0.2,0-0.4,0c-0.4-0.6-0.6-1.4-0.6-2.2c0.2-0.2,0.2-0.4,0.4-0.4
			C-319.8,542.4-319.6,543.4-319.4,544.2z"/>
	</g>
	<g>
		<path class="st82" d="M-435.2,503.6c-0.2-0.2-0.4-0.4-0.4-0.6c0.6-0.6,1-1.2,1.6-1.8c0,0.2,0,0.6,0,0.8
			C-434.4,502.6-434.8,503-435.2,503.6z"/>
	</g>
	<g>
		<path class="st1" d="M-569.3,535.8c-1-0.2-2-0.4-2.9-1C-571,534.6-570.1,535-569.3,535.8z"/>
	</g>
	<g>
		<path class="st1" d="M-759.2,594.8c-1.2-0.2-2.4,0.2-3.5-0.6C-761.4,594.4-760.2,593.8-759.2,594.8z"/>
	</g>
	<g>
		<path class="st1" d="M-321.1,595.4c0.2-1,0.8-1.6,1.6-2.2C-319.2,594.4-320.1,595-321.1,595.4z"/>
	</g>
	<g>
		<path class="st77" d="M-351.7,506.4c-0.6-0.8-1.2-1.4-0.8-2.4C-351.7,504.6-351.7,505.4-351.7,506.4z"/>
	</g>
	<g>
		<path class="st83" d="M-333.1,536.9c0.2-0.2,0.4-0.4,0.6-0.4c0.6,0.6,0.4,1.4,0.4,2.2c-0.2,0.2-0.4,0.2-0.4,0
			C-332.9,538.1-333.1,537.5-333.1,536.9z"/>
	</g>
	<g>
		<path class="st84" d="M-435.6,536.4c0,0.2,0,0.4,0,0.8c-0.2,0.8-0.4,1.4-1.6,1.4C-436.6,537.7-436.2,537.1-435.6,536.4z"/>
	</g>
	<g>
		<path class="st1" d="M-572.2,534.8c-1,0-2-0.4-2.9-1C-573.8,533.6-572.8,533.8-572.2,534.8z"/>
	</g>
	<g>
		<path class="st85" d="M-319.2,549.3c0-1,0-2.2,0.2-3.5c0.2,0,0.4,0,0.6,0C-319,547.1-318.4,548.3-319.2,549.3z"/>
	</g>
	<g>
		<path class="st1" d="M-343.3,616.5c0.6-0.8,1.4-1.4,2.2-1.8C-341.5,615.9-342.1,616.7-343.3,616.5z"/>
	</g>
	<g>
		<path class="st1" d="M-512,548.7c-0.2,1-0.8,1.6-1.6,2C-513.6,549.7-512.8,549.1-512,548.7z"/>
	</g>
	<g>
		<path class="st1" d="M-551,544.2c-1,0-2-0.4-2.9-1.2C-552.6,543-551.8,543.2-551,544.2z"/>
	</g>
	<g>
		<path class="st1" d="M-736.9,600.5c1.2,0.2,2.4-0.2,3.5,0.6C-734.7,600.8-735.9,601.4-736.9,600.5z"/>
	</g>
	<g>
		<path class="st1" d="M-346.2,618.7c0.6-0.8,1.4-1.4,2.2-1.8C-344.1,618.1-345,618.9-346.2,618.7z"/>
	</g>
	<g>
		<path class="st86" d="M-366.6,485.2c0.2-0.2,0.4-0.4,0.6-0.6c0.2,0.2,0.2,0.4,0,0.6c-0.2,0.6,0,1.2-0.8,1.6
			C-367.6,486.2-366.8,485.8-366.6,485.2z"/>
	</g>
	<g>
		<path class="st87" d="M-417.8,499.1c-0.4,1-1.2,1.6-2.2,1.6C-419.7,499.9-419.1,499.3-417.8,499.1z"/>
	</g>
	<g>
		<path class="st1" d="M-733.1,601c1.2,0.2,2.4-0.2,3.5,0.6C-730.8,601.4-732,602-733.1,601z"/>
	</g>
	<g>
		<path class="st1" d="M-311.7,496.4c-0.8-0.6-1.4-1.4-1.6-2.4C-312.3,494.6-311.5,495.2-311.7,496.4z"/>
	</g>
	<g>
		<path class="st88" d="M-394.4,494.2c-0.2,0-0.4,0-0.8,0c0.6-0.4,1.2-0.8,2-1.4C-392.9,493.8-393.5,494-394.4,494.2z"/>
	</g>
	<g>
		<path class="st61" d="M-314.3,552c0.2,0,0.4,0,0.4,0h0.4c-0.2,0.6-0.2,1.4-1,1.4c-0.4,0-0.6-0.8-0.6-1.4
			C-314.7,552-314.5,552-314.3,552z"/>
	</g>
	<g>
		<path class="st89" d="M-390.7,490.7c0.2,0,0.4,0,0.6,0c-0.4,0.8-0.8,1.4-2,1.6C-391.9,491.5-391.1,491.1-390.7,490.7z"/>
	</g>
	<g>
		<path class="st90" d="M-431.7,527.7c-0.2-0.2-0.4-0.4-0.6-0.6c0.4-0.4,0.8-0.8,1-1.2c0.2,0.2,0.4,0.4,0.6,0.6
			C-431.1,526.8-431.3,527.3-431.7,527.7z"/>
	</g>
	<g>
		<path class="st91" d="M-379.1,489.3c-0.4,0.8-0.8,1.4-1.6,1.2C-380.5,489.7-380.3,489.3-379.1,489.3z"/>
	</g>
	<g>
		<path class="st1" d="M-365.6,644c1.2,0,2.2-0.2,3.5,0.4C-363.3,644.2-364.6,644.9-365.6,644z"/>
	</g>
	<g>
		<path class="st1" d="M-320.5,486.6c-0.8-0.4-1.6-1-2.2-1.8C-321.5,484.8-320.9,485.4-320.5,486.6z"/>
	</g>
	<g>
		<path class="st92" d="M-349,498.7c-0.6-0.4-1-1-0.8-1.8C-349,497.2-349,497.9-349,498.7z"/>
	</g>
	<g>
		<path class="st1" d="M-388.9,645.7c1,0,1.8,0,2.9,0c0.2,0.2,0.4,0.4,0.6,0.4C-386.6,645.9-387.8,646.5-388.9,645.7z"/>
	</g>
	<g>
		<path class="st93" d="M-366,485.2c0-0.2,0-0.4,0-0.6c0.2-0.2,0.2-0.4,0.4-0.6c0-0.4,0-0.6,0.2-1c0.4-0.2,0.8,0,0.4,0.4
			c0,0.8,0.2,1.6-0.4,2.2C-365.6,485.6-365.8,485.4-366,485.2z"/>
	</g>
	<g>
		<path class="st94" d="M-415,481.5c-0.4,0.6-1,1.4-2,1.4C-416.8,481.7-416.2,481.5-415,481.5L-415,481.5z"/>
	</g>
	<g>
		<path class="st1" d="M-350.5,646.1c1,0,2.2,0,3.3,0C-348.2,646.9-349.4,646.9-350.5,646.1z"/>
	</g>
	<g>
		<path class="st95" d="M-365,483.6c-0.2-0.2-0.4-0.4-0.4-0.4c0.2-0.6,0.4-1.2,0.6-1.8C-364.4,482.1-364.1,483-365,483.6z"/>
	</g>
	<g>
		<path class="st1" d="M-406.2,661.8c-0.8-0.8-1-1.6-1-2.9C-406.4,659.6-406.2,660.6-406.2,661.8z"/>
	</g>
	<g>
		<path class="st1" d="M-412.9,659.3c0.8,0.8,1,1.6,1,2.9C-412.7,661.6-412.9,660.6-412.9,659.3z"/>
	</g>
	<g>
		<path class="st95" d="M-397.2,480.7c0.6-0.8,1.4-1,2.7-1C-395.6,480.7-396.4,480.9-397.2,480.7L-397.2,480.7z"/>
	</g>
	<g>
		<path class="st42" d="M-415.2,481.3c0.4-0.6,0.8-1.4,1.8-1.4C-413.6,480.9-414.2,481.1-415.2,481.3
			C-415,481.5-415.2,481.3-415.2,481.3z"/>
	</g>
	<g>
		<path class="st96" d="M-319.8,527.1c-0.2,0-0.4,0-0.6,0c-0.6-0.6-0.8-1-0.2-1.8C-320.3,525.6-319.8,526.2-319.8,527.1z"/>
	</g>
	<g>
		<path class="st48" d="M-410.7,516.8c0.4-0.6,1-1.4,1.8-1.4C-408.9,516.6-409.7,516.8-410.7,516.8L-410.7,516.8z"/>
	</g>
	<g>
		<path class="st97" d="M-404.6,475.8c0,0.2,0,0.4,0,0.4c-0.8,0-1.4,0.8-2.4,0.4C-406.4,475.8-405.4,475.6-404.6,475.8z"/>
	</g>
	<g>
		<path class="st1" d="M-638.3,541.3c-0.8,0.6-1.8,0.6-2.9,0.6C-640.4,541.1-639.4,541.5-638.3,541.3z"/>
	</g>
	<g>
		<path class="st1" d="M-557.7,541.5c-0.8-0.2-1.6-0.4-2.2-1C-558.9,540.3-558.1,540.3-557.7,541.5z"/>
	</g>
	<g>
		<path class="st56" d="M-332.7,538.7c0.2,0,0.4,0,0.4,0c0,0.8,0.2,1.6-0.2,2.2C-332.9,540.1-332.5,539.3-332.7,538.7z"/>
	</g>
	<g>
		<path class="st98" d="M-427.8,495c-0.4,0.2-0.8,0.6-1,0.8c0-0.8,0.4-1.6,1-2.2l0,0C-427.8,494-427.8,494.4-427.8,495z"/>
	</g>
	<g>
		<path class="st1" d="M-424,640c1,0,2-0.2,2.9,0.6C-422.1,640.4-423.2,641-424,640z"/>
	</g>
	<g>
		<path class="st99" d="M-704.7,611c0-0.2,0-0.4,0-0.6c1-1,1.2,0,1.6,0.6C-703.5,611-704.1,611-704.7,611z"/>
	</g>
	<g>
		<path class="st1" d="M-755.9,595.4c-1,0-2,0.2-2.9-0.4C-757.8,595-756.7,594.4-755.9,595.4z"/>
	</g>
	<g>
		<path class="st98" d="M-427.8,493.6c0-0.6-0.2-1.4,0.8-2C-426.8,492.6-427.4,493.2-427.8,493.6L-427.8,493.6z"/>
	</g>
	<g>
		<path class="st100" d="M-322.3,545.4c-0.8-0.8-0.4-1.8-0.4-2.9C-321.9,543.4-322.1,544.4-322.3,545.4z"/>
	</g>
	<g>
		<path class="st1" d="M-805.3,614.4c-1,0.8-2,0.8-3.1,0C-807.4,614.4-806.4,614.4-805.3,614.4z"/>
	</g>
	<g>
		<path class="st1" d="M-800.4,615.5c0.8-0.8,1.8-0.4,2.9-0.4C-798.4,615.9-799.4,615.5-800.4,615.5z"/>
	</g>
	<g>
		<path class="st1" d="M-376.2,461.3c-1,0-2,0.2-2.9-0.4C-378,460.9-377,460.3-376.2,461.3z"/>
	</g>
	<g>
		<path class="st1" d="M-698.6,568.9c-0.8-0.2-1.6-0.4-2.2-1.2C-699.8,567.5-699,567.7-698.6,568.9z"/>
	</g>
	<g>
		<path class="st1" d="M-373.3,645.5c0.6-0.6,1.4-1,2.2-1.2C-371.5,645.5-372.3,645.7-373.3,645.5z"/>
	</g>
	<g>
		<path class="st97" d="M-345.2,506.6c-0.6-0.4-1-0.8-0.8-1.6C-345.2,505.4-344.8,505.6-345.2,506.6z"/>
	</g>
	<g>
		<path class="st1" d="M-353.3,625.5c-0.6-0.2-0.4-0.6-0.4-1c0.4-0.2,1-0.4,1.4-0.8C-352.5,624.4-352.9,624.8-353.3,625.5z"/>
	</g>
	<g>
		<path class="st1" d="M-376.2,646.1c0.8-0.8,1.8-0.4,2.9-0.6C-374.2,646.5-375.2,646.1-376.2,646.1z"/>
	</g>
	<g>
		<path class="st1" d="M-353.9,645.7c1,0,2-0.2,2.9,0.4C-351.9,646.1-352.9,646.5-353.9,645.7z"/>
	</g>
	<g>
		<path class="st1" d="M-473,533.2c-0.8,0.6-1.8,0.4-2.9,0.4C-475,532.8-473.8,533.2-473,533.2z"/>
	</g>
	<g>
		<path class="st101" d="M-468.1,533.6c-0.2-0.2-0.4-0.4-0.6-0.6c-0.2-0.2-0.2-0.2,0-0.4l0.2-0.2c0.6,0.2,1.4-0.4,1.6,0.2
			C-466.6,533.2-467.5,533.4-468.1,533.6z"/>
	</g>
	<g>
		<path class="st1" d="M-468.5,532.6c0,0.2,0,0.4-0.2,0.4c-0.8,0-1.8,0-2.7,0C-470.5,532.2-469.5,532.6-468.5,532.6z"/>
	</g>
	<g>
		<path class="st102" d="M-416.2,521.3c0-0.2,0-0.4,0-0.6c0.4-0.6,0.8-1,1.6-1l0.2,0.2C-414.8,520.5-415.4,520.9-416.2,521.3z"/>
	</g>
	<g>
		<path class="st1" d="M-707.3,565.4c-1-0.2-2,0.2-2.9-0.6C-709.2,565-708.2,564.4-707.3,565.4z"/>
	</g>
	<g>
		<path class="st1" d="M-775.3,557.7c-0.8,0.8-1.8,0.4-2.9,0.4C-777.4,557.3-776.1,557.7-775.3,557.7z"/>
	</g>
	<g>
		<path class="st103" d="M-370.7,479.9c0.2,0.8,0.2,1.4-0.2,1.4c-0.8,0.2-0.4-0.4-0.2-0.6C-371.3,480.5-371.1,480.3-370.7,479.9z"/>
	</g>
	<g>
		<path class="st1" d="M-342.7,472.3c-0.8-0.2-1.6-0.4-2.2-1C-343.9,471.3-343.1,471.3-342.7,472.3z"/>
	</g>
	<g>
		<path class="st1" d="M-603.2,532c-0.8,0.6-1.8,0.6-2.9,0.6C-605.3,531.5-604.2,532.2-603.2,532z"/>
	</g>
	<g>
		<path class="st1" d="M-600.4,531.5c-0.8,0.8-1.8,0.4-2.9,0.6C-602.6,530.9-601.4,531.5-600.4,531.5z"/>
	</g>
	<g>
		<path class="st35" d="M-414.6,519.7c0.4-0.4,0.8-1.2,1.6-1c0,1-0.8,1-1.4,1.2C-414.6,519.7-414.6,519.7-414.6,519.7z"/>
	</g>
	<g>
		<path class="st104" d="M-410.5,517.1c-0.4,0.6-0.6,1.2-1.6,1.2C-412.1,517.3-411.3,517.1-410.5,517.1
			C-410.7,516.8-410.5,517.1-410.5,517.1z"/>
	</g>
	<g>
		<path class="st1" d="M-404.6,669.6c0-0.8,0-1.8,0.2-2.7C-403.8,667.7-403.6,668.5-404.6,669.6z"/>
	</g>
	<g>
		<path class="st1" d="M-390.5,460.7c-0.8,0.6-1.8,0.4-2.9,0.4C-392.5,460.3-391.5,460.9-390.5,460.7z"/>
	</g>
	<g>
		<path class="st1" d="M-428.3,637.7c0.8,0.2,1.4,0.4,1.8,1.2c-0.6,0.2-1,0.4-1.6,0.6C-428,638.9-428,638.3-428.3,637.7z"/>
	</g>
	<g>
		<path class="st90" d="M-319.8,554.2c0,0.4,0,0.8,0.2,1.4c-0.2,0.4-0.2,0.6-0.2,1c-0.2-0.2-0.2-0.4-0.2-0.6
			C-320.5,555.2-320.5,554.6-319.8,554.2z"/>
	</g>
	<g>
		<path class="st1" d="M-756.9,598.3c1,0,2-0.2,2.9,0.4C-755.1,598.7-756.1,599.1-756.9,598.3z"/>
	</g>
	<g>
		<path class="st105" d="M-338.4,601.8c-0.2,0.2-0.4,0.4-0.6,0.4s-0.4-0.2-0.6-0.4c0.2-0.2,0.4-0.4,0.4-0.4
			C-339,601.2-338.8,601.6-338.4,601.8z"/>
	</g>
	<g>
		<path class="st3" d="M-543.8,629.5c0.4,0.2,0.4,0.8,0.6,1.2c-1.4,8-2.9,15.9-1.6,24.1c1.4,8,6.3,12.7,13.5,15.1
			c5.9,2,12.2,2.9,18.4,3.9c2.2,0.4,4.7,0.8,7.1,1c-1.2,1.2-2.7,0.4-3.7,0.6c10.6,1.8,21.6,1.4,32.5,1.4c11.8-0.2,23.5,0.8,35.3,0.8
			c5.1,0,10,2,15.1,1.6c0.6,0,1.4,0.2,1.6,1.2c-10.8,2.9-21.6,2.7-32.5,1.8c-5.1-0.4-10,0-15.1-0.2c-17.8-0.4-35.3-2.2-52.5-6.1
			c-3.1-0.6-5.9-1.6-8.8-2.9c-8.6-3.5-12.9-10-13.7-19c-0.6-5.9,0.2-11.8,1.4-17.6C-546.7,633.8-545.6,631.4-543.8,629.5
			L-543.8,629.5z"/>
	</g>
	<g>
		<path class="st6" d="M-651.8,562c0-0.2,0-0.2,0-0.4c1-0.8,2-1.4,3.3-1.2c9,8.6,14.3,19.4,17.1,31.4c2.4,10.4,3.3,21,3.3,31.6
			c0,4.1-1,6.3-3.7,6.9c-2.4,0.6-4.9-1-6.5-4.5c-0.2-0.4-0.2-0.6-0.4-1c0.6-1.8,2.7-1.2,3.9-2c0.8-0.6,1.6-0.8,1.6-2
			c-0.2-2.4,0.2-4.9-0.2-7.3c-0.4-8.4-1.2-16.7-3.5-24.9C-639.6,578.3-644.5,569.5-651.8,562z"/>
	</g>
	<g>
		<path class="st106" d="M-425.2,680.6c-0.2-0.2-0.2-0.4-0.4-0.4c-5.3,0.2-10.4-1.6-15.5-1.6c-18-0.4-36.1-1-54.1-0.8
			c-5.5,0-11.2,0-17.1-2.7c2.7,0,4.7,0,6.7,0c14.1,0.8,28.2,0.2,42.3,0.8c9,0.4,18.2,0.8,27.2,0.2c4.3-0.2,8.4-0.6,12.5,1
			c1,0.4,2,0.8,2.9,1.4c0.4,0.2,1.2,0.4,1,1c-0.4,0.8-1,0.2-1.6,0c-2-1-4.1-1.4-6.1-1.8c2,0.6,4.3,1,6.1,1.8
			C-422.3,681.6-424,680.4-425.2,680.6z"/>
	</g>
	<g>
		<path class="st107" d="M-562,648.3c-1.6,0.2-2.7-0.2-3.7-1c-10.4-6.5-21.8-9.6-33.9-11.4c-6.3-1-12.5-0.8-18.8-2.2
			c-1.4-0.4-2.9-0.8-4.1-1.6c-0.4-0.2-0.8-0.6-0.6-1c0.4-0.6,0.8-0.4,1.4-0.2c5.7,2.2,11.6,1.8,17.6,2.2c12.5,1,24.5,3.3,35.7,9
			C-565.7,643.4-563,644.9-562,648.3z"/>
	</g>
	<g>
		<path class="st108" d="M-633.2,613.4c0.8,2.9,0.4,5.9,0.2,8.8c-0.2,1.2-1.8,2-3.3,2.2c-0.8,0.2-1.6-0.2-2.2,0.6
			c-0.2-0.2-0.4-0.4-0.4-0.6c-0.8-3.3-0.2-4.1,2.9-4.5c1.2,0,1.6,1.2,2.9,2.2C-633.2,618.9-633.2,616.1-633.2,613.4z"/>
	</g>
	<g>
		<path class="st109" d="M-648.3,560.3c-1,0.8-2,1.4-3.3,1.2c-1.4-1-3.3-1.8-4.5-3.3c1.4-0.4,3.1,0.4,4.3-0.6c1.4,0,2.4,0.8,3.7,1.4
			C-647.1,559.7-648.3,559.9-648.3,560.3z"/>
	</g>
	<g>
		<path class="st110" d="M-495.8,638.9c5.5,0.4,10,2.9,13.9,6.7C-486.6,643.6-491.1,641.2-495.8,638.9z"/>
	</g>
	<g>
		<path class="st111" d="M-543.8,629.3c-1,2.4-1.8,4.7-2.2,7.3c-0.8,0-1.8-0.2-2.2-1C-547.3,633.2-547.1,630.2-543.8,629.3z"/>
	</g>
	<g>
		<path class="st112" d="M-540.3,551.3c1,0,2.2,0,3.9,0c-1.2,0.8-2,1-2.9,1c-1.8-1-3.9-0.2-5.7-0.4c-1-0.2-2.2,0.4-3.1-0.6
			C-545.6,551.6-543,551.8-540.3,551.3z"/>
	</g>
	<g>
		<path class="st113" d="M-459.1,653.8c1.4,0,2.7,0,3.9,0c-0.2,0.6-0.6,0.8-1,1C-457,653.8-458.5,654.9-459.1,653.8z"/>
	</g>
	<g>
		<path class="st114" d="M-557.7,569.3c0.2,0.2,0.4,0.4,0.4,0.6c-0.2,0.6-0.6,1.2-1.4,1.4C-558.7,570.3-558.1,569.9-557.7,569.3z"/>
	</g>
	<g>
		<path class="st115" d="M-659.4,554.8c-0.8,0.6-1.6,0.6-2.4,0.4c0-0.8,0.8-0.8,1.2-1C-660.4,554.6-660,554.8-659.4,554.8z"/>
	</g>
	<g>
		<path class="st116" d="M-689.2,598.5c0.2,2.4,0.6,5.1,0.8,7.8C-690.6,604.8-691,602-689.2,598.5z"/>
	</g>
	<g>
		<path class="st117" d="M-665.1,560.3c2.2-2.2,4.5-3.9,7.8-2.2C-659.8,559.1-662.4,559.9-665.1,560.3z"/>
	</g>
	<g>
		<path class="st1" d="M-449.7,651.2c-1.4-0.2-2.9-0.8-4.3-0.6c-8.4-0.8-16.3-3.7-24.1-7.1c-1-0.4-2-0.8-2.7-1.8
			c0-0.2,0-0.4-0.2-0.4c0.8-1.8,1.8-2.7,4.1-2.9c4.5-0.4,8.4-3.5,12-5.9c5.7-4.1,9.6-9.4,11.2-16.5c2,1.2,2.2,3.3,2.4,5.1
			c0.4,6.7,2.7,13.3,3.9,19.8c0.8,4.1,3.3,6.5,7.3,7.3c-1,1.6-2.9,0.8-4.5,1.4C-445.8,650-447.9,650-449.7,651.2z"/>
	</g>
	<g>
		<path class="st1" d="M-440.7,621.6c1.6,5.1,5.9,8.4,9.4,12.2c0.2,0.2,0.2,0.2,0.2,0.4s0,0.2,0,0.2c-3.3,2.4-7.1,4.1-10.2,7.1
			c-0.4,0.4-1,0.4-1.4,0c-2.2-6.3-4.3-12.7-5.7-19.4c-0.6-2.9-1-5.9-3.9-7.8c-0.4-0.4-0.8-0.8-0.6-1.4c1-4.1-0.2-8.2-0.2-12.2
			c3.1,4.3,5.3,8.8,7.8,13.3c1.4,2.4,2.7,4.9,4.5,6.9C-440.7,621.4-440.7,621.4-440.7,621.6C-440.5,621.6-440.7,621.6-440.7,621.6z"
			/>
	</g>
	<g>
		<path class="st118" d="M-431.3,634.2c0-0.2,0-0.2,0-0.4c0.2,0,0.4,0.2,0.4,0.2c2.4,0.4,2.4,0.4,1.2,2.7c-1,0.4-2.7,0.2-1,2.2
			c0.8,1.2-1.6,2.4-2.9,3.3c-2.2-0.4-3.7,1.2-5.7,1.6c-3.3,1.4-3.3,1.4-3.3-1.6C-438.9,639.3-434.8,637.3-431.3,634.2z"/>
	</g>
	<g>
		<path class="st119" d="M-431.3,634.2c0.2,1.2-0.8,1.4-1.6,2c-2.7,1.8-5.5,3.5-8,5.9c-0.4,0.4-1,0.4-1.4,0.2
			c-0.2-0.2-0.2-0.4-0.4-0.6c3.1-1.6,5.5-4.5,8.8-5.9C-433.2,635.3-432.1,634.8-431.3,634.2z"/>
	</g>
	<g>
		<path class="st120" d="M-439.1,644c1-2,3.3-1.8,4.9-2.7c0.6-0.2,0.6,0.4,0.8,1c-0.8,1.4-2,2-3.5,2.7
			C-437.8,645.5-438.9,645.5-439.1,644z"/>
	</g>
	<g>
		<path class="st121" d="M-479.7,635.5c0.2-0.2,0.4-0.4,0.6-0.6c0.4-0.4,0.8-0.6,0.8,0.2s-0.4,1.4-0.8,2.7
			C-479.9,636.9-479.7,636.1-479.7,635.5z"/>
	</g>
	<g>
		<path class="st122" d="M-440.7,621.6c-0.2-0.2-0.2-0.2-0.2-0.4c0.2-0.8,0.4-1.6,1.4-0.8c0.4,0.4,1,0.8,0.6,1.2
			C-439.3,622.6-440.1,621.8-440.7,621.6z"/>
	</g>
	<g>
		<path class="st1" d="M-351.1,642.2c-4.3-1-8.6-2.2-13.3-1.8c-1,0.2-2-0.2-2.9-0.4c-1.8-0.8-3.9-1.4-3.9-3.9
			c5.1-2.4,9.6-5.3,13.9-8.8c1.4-0.4,2.4,0.4,3.5,1.2c2.2,1.6,4.3,3.5,6.5,5.1c2.2,1.4,1.8,3.7,1.4,5.3c-0.6,2-2,3.7-4.5,3.3
			C-350.5,642.2-350.9,642.2-351.1,642.2z"/>
	</g>
	<g>
		<path class="st123" d="M-380.1,638.3c-1.4-1-3.1-0.2-4.9-0.8c7.3-2.4,13.5-6.9,21.4-8.4c-0.8,2.9-2.7,3.5-4.3,4.3
			c-1.4,0.8-3.3,0.8-3.9,2.7c-0.2,0.6-0.6,0.8-1,1c-0.6,0.2-1.2,0.4-1.8,0.8C-376.4,638.1-378,639.3-380.1,638.3z"/>
	</g>
	<g>
		<path class="st14" d="M-372.9,636.7c0.4-0.2,0.8-0.4,1.2-0.6c0.2,0,0.4,0,0.6,0c1,1.6,2.4,2.7,3.9,3.9c-3.9-0.4-7.1,1.2-10.6,2.2
			c-0.2,0-0.4,0-0.6,0c0.2-1.6-1.8-2-2.2-3.3c0.2-0.2,0.4-0.4,0.6-0.6c1.8-0.4,3.7-0.8,5.5-1C-373.7,637.5-373.1,638.1-372.9,636.7z
			"/>
	</g>
	<g>
		<path class="st124" d="M-380.5,638.7c1.4,0.6,3.1,1.2,2.2,3.3c-3.7-0.2-7.3,0.6-11-1c0.6-0.2,1-0.4,1.6-0.4
			C-385.2,640.6-382.9,639.7-380.5,638.7z"/>
	</g>
	<g>
		<path class="st125" d="M-355,625.5c-0.4,1-1.2,1-2.2,1c-0.8-0.8-2-1-3.3-1.2c-0.4-0.2-0.8-0.4-1-0.8c-0.2-0.8,0.6-1,1-1
			C-358.2,623.2-356.4,623.6-355,625.5z"/>
	</g>
	<g>
		<path class="st7" d="M-480.7,641.6c8.6,4.1,17.6,6.5,26.7,9c-4.5-0.2-9,0.6-13.5-0.4c-4.9-1.2-8.8-4.1-12.7-6.9
			C-480.5,642.8-481.5,642.4-480.7,641.6z"/>
	</g>
	<g>
		<path class="st126" d="M-326,531.3c-1-1-0.4-2.2-0.6-3.3C-325.6,529.1-326.2,530.3-326,531.3z"/>
	</g>
	<g>
		<path class="st127" d="M-421.7,679.6c-2.4,0.2-4.5-1-6.7-2C-426,677.5-423.6,677.3-421.7,679.6L-421.7,679.6z"/>
	</g>
	<g>
		<path class="st128" d="M-372.9,636.7c0.2,0.6,0.6,1.2,1,2c-1.2-0.2-2-0.6-2.7-1.4C-373.9,637.1-373.3,636.9-372.9,636.7z"/>
	</g>
</g>
<g>
	<path class="st6" d="M-754.6,160.4c-3.3-0.1-8.8-0.2-16.5-0.2c-10.5,0-18.3,0.1-23.5,0.2v-1.4c1.6-0.1,2.7-0.3,3.5-0.6
		c0.7-0.3,1.2-0.8,1.5-1.7c0.3-0.8,0.4-2.1,0.4-4V117c0-1.8-0.1-3.1-0.4-4c-0.3-0.8-0.8-1.4-1.5-1.7c-0.7-0.3-1.9-0.5-3.5-0.6v-1.4
		c5.2,0.1,13,0.2,23.5,0.2c7.1,0,12.1-0.1,15-0.2c-0.3,4-0.5,7.5-0.5,10.7c0,2.1,0.1,3.7,0.2,4.9h-1.7c-0.7-5.1-2-8.7-3.9-10.8
		c-1.9-2.1-4.5-3.1-7.9-3.1h-3c-1.5,0-2.6,0.1-3.2,0.4c-0.7,0.2-1.1,0.7-1.4,1.4c-0.2,0.7-0.4,1.8-0.4,3.3V134h2.3
		c2.5,0,4.5-0.9,5.8-2.8c1.3-1.9,2.2-4.1,2.8-6.7h1.7c-0.1,2-0.2,4.3-0.2,6.8v3.5c0,2.4,0.1,5.9,0.4,10.2h-1.7
		c-1-6.3-3.9-9.5-8.8-9.5h-2.3v18.1c0,1.5,0.1,2.7,0.4,3.3c0.2,0.7,0.7,1.2,1.4,1.4c0.7,0.2,1.8,0.4,3.2,0.4h3.5
		c3.4,0,6.2-1.2,8.2-3.5c2.1-2.3,3.6-6.3,4.4-11.8h1.7c-0.1,1.6-0.2,3.6-0.2,6C-755.1,153.8-754.9,157.5-754.6,160.4z"/>
	<path class="st6" d="M-747,158.5c-1.5-1.6-2.3-3.7-2.3-6.3c0-2.2,0.6-3.9,1.7-5.4c1.1-1.4,2.5-2.5,4.1-3.3c1.6-0.8,3.7-1.6,6.2-2.4
		c2.6-0.9,4.6-1.7,5.8-2.5c1.2-0.7,1.8-1.8,1.8-3.1V130c0-2-0.5-3.6-1.4-4.7c-0.9-1.1-2.4-1.7-4.4-1.7c-2.3,0-4.1,0.6-5.3,1.7
		c1.3,0.5,2.4,1.2,3.1,2.2c0.7,1,1.1,2.1,1.1,3.4c0,1.6-0.6,2.9-1.7,3.9c-1.1,1-2.4,1.4-4,1.4c-1.7,0-3-0.5-3.9-1.6
		c-0.9-1.1-1.4-2.4-1.4-4c0-1.3,0.3-2.5,1-3.4c0.6-0.9,1.6-1.8,3-2.6c1.3-0.8,2.9-1.4,4.8-1.8c1.9-0.4,4-0.6,6.2-0.6
		c2.4,0,4.4,0.2,6.1,0.7c1.7,0.5,3.2,1.3,4.3,2.4c1.1,1.1,1.8,2.4,2.1,3.9c0.4,1.5,0.5,3.6,0.5,6.3V155c0,1.2,0.1,2,0.3,2.4
		c0.2,0.5,0.6,0.7,1.3,0.7c0.7,0,1.6-0.4,2.6-1.2l0.7,1.2c-2.2,1.8-4.8,2.7-7.9,2.7c-2.6,0-4.5-0.5-5.5-1.6
		c-1.1-1.1-1.6-2.5-1.7-4.2c-2.4,3.9-5.9,5.8-10.6,5.8C-743.2,160.9-745.5,160.1-747,158.5z M-729.7,153.3v-14.8
		c-0.6,1-1.8,2-3.7,3.2c-1.9,1.2-3.3,2.4-4.2,3.6c-1,1.2-1.4,2.9-1.4,5.2c0,2,0.4,3.4,1.2,4.4c0.8,0.9,1.9,1.4,3.2,1.4
		C-732.7,156.3-731.1,155.3-729.7,153.3z"/>
	<path class="st6" d="M-682.7,124.1c1.1,1.3,1.7,2.9,1.7,4.7c0,1.8-0.5,3.2-1.5,4.4c-1,1.1-2.4,1.7-4.1,1.7c-1.6,0-2.9-0.4-3.9-1.3
		c-1-0.8-1.4-2-1.4-3.3c0-2.3,1.1-4.2,3.2-5.6c-0.2,0-0.5-0.1-0.9-0.1c-0.5,0-0.9,0-1.2,0.1c-1.8,0.3-3.4,1.4-4.6,3.3
		c-1.3,1.9-1.9,3.9-1.9,5.9V153c0,2.2,0.5,3.7,1.6,4.6c1.1,0.9,2.8,1.3,5.1,1.3v1.5c-0.7,0-1.2,0-1.7-0.1c-4.9-0.1-8.2-0.2-9.8-0.2
		c-1.3,0-4.2,0.1-8.9,0.2c-0.4,0-0.9,0.1-1.4,0.1v-1.5c1.7,0,2.9-0.4,3.6-1.1c0.7-0.7,1-2.1,1-4.1V131c0-2.2-0.3-3.8-1-4.8
		c-0.7-1-1.9-1.5-3.6-1.5v-1.5c1.5,0.1,3,0.2,4.5,0.2c4.3,0,7.8-0.3,10.5-1v6.7c0.9-2.1,2.2-3.7,4-5c1.7-1.3,3.7-1.9,5.8-1.9
		C-685.4,122.1-683.8,122.8-682.7,124.1z"/>
	<path class="st6" d="M-665.9,153.7c0,2,0.3,3.3,1,4.1c0.7,0.7,1.9,1.1,3.6,1.1v1.5c-5-0.2-8.2-0.3-9.6-0.3c-1.6,0-4.9,0.1-9.9,0.3
		v-1.5c1.7,0,2.9-0.4,3.6-1.1c0.7-0.7,1-2.1,1-4.1v-41c0-2.2-0.3-3.8-1-4.8c-0.7-1-1.9-1.5-3.6-1.5v-1.5c1.5,0.1,3,0.2,4.5,0.2
		c4.2,0,7.7-0.3,10.5-1V153.7z"/>
	<path class="st6" d="M-623,123.2v1.4c-1,0.3-1.9,0.9-2.7,1.8c-0.8,0.9-1.5,2.4-2.3,4.4l-12.9,36.2c-1,2.5-2,4.2-3.2,5.1
		c-1.4,1.2-3.5,1.8-6.3,1.8c-2,0-3.8-0.5-5.4-1.5c-1.6-1-2.4-2.4-2.4-4.3c0-1.5,0.5-2.7,1.6-3.6c1.1-0.9,2.4-1.3,4.2-1.3
		c1.6,0,2.9,0.4,3.9,1.2c1,0.8,1.5,1.9,1.5,3.3c0,1-0.3,1.9-0.9,2.8c-0.6,0.8-1.5,1.5-2.7,1.9c0.3,0,0.9,0.1,1.7,0.1
		c3,0,5.2-1.9,6.6-5.7l1.2-3.5l-15.3-34.7c-0.8-1.6-1.5-2.7-2.2-3.2c-0.7-0.5-1.5-0.8-2.2-0.8v-1.5c3.2,0.3,6.5,0.4,9.9,0.4
		c2.8,0,6.2-0.1,10-0.4v1.5c-1.5,0-2.7,0.1-3.4,0.3c-0.7,0.2-1.1,0.8-1.1,1.7c0,0.5,0.2,1.2,0.5,2l8.8,21.2l5-13.8
		c0.8-2.3,1.2-4.2,1.2-5.8c0-3.5-1.8-5.4-5.3-5.8v-1.4c2.3,0.1,4.6,0.2,7,0.2C-626.1,123.4-624.3,123.3-623,123.2z"/>
	<path class="st6" d="M-571.9,109.6c2,0.8,4,2,5.9,3.5c0.5,0.4,1,0.6,1.4,0.6c1,0,1.6-1.4,1.9-4.3h1.7c-0.2,3.3-0.3,9.1-0.3,17.4
		h-1.7c-0.4-3.6-1-6.3-1.7-8.1c-0.7-1.9-1.9-3.5-3.7-4.9c-1.2-1.2-2.6-2-4.2-2.6c-1.6-0.6-3.2-0.9-5-0.9c-4.8,0-8.4,2.4-10.8,7.1
		c-2.4,4.7-3.5,10.6-3.5,17.7c0,7,1.2,12.9,3.7,17.6c2.4,4.7,6.1,7.1,10.9,7.1c1.6,0,3.3-0.3,4.9-0.9c1.6-0.6,3-1.5,4.1-2.6
		c1.8-1.3,3-3,3.7-5c0.7-2,1.2-5,1.6-8.9h1.7c0,8.7,0.1,14.7,0.3,18.1h-1.7c-0.1-1.5-0.3-2.6-0.6-3.3c-0.3-0.6-0.6-1-1.1-1
		c-0.4,0-0.9,0.2-1.5,0.6c-2.2,1.5-4.2,2.7-6.2,3.5c-2,0.8-4.3,1.2-7.1,1.2c-5.1,0-9.5-1-13.4-3.1c-3.8-2.1-6.8-5.1-8.9-9
		c-2.1-3.9-3.2-8.6-3.2-14c0-5.3,1.1-10,3.2-14c2.2-4.1,5.2-7.2,9-9.5c3.9-2.3,8.3-3.4,13.2-3.4
		C-576.3,108.4-573.9,108.8-571.9,109.6z"/>
	<path class="st6" d="M-540.7,128.8c2.2-4.5,6.1-6.7,11.7-6.7c3.7,0,6.4,0.9,7.9,2.8c0.8,0.9,1.4,2.1,1.8,3.6
		c0.4,1.5,0.5,3.4,0.5,5.8v19.4c0,2,0.3,3.3,1,4.1c0.7,0.7,1.9,1.1,3.6,1.1v1.5c-5-0.2-8.2-0.3-9.5-0.3c-1.6,0-4.8,0.1-9.4,0.3v-1.5
		c1.4,0,2.4-0.4,3-1.1c0.6-0.7,0.9-2.1,0.9-4.1v-22.4c0-2-0.3-3.5-1-4.5c-0.6-1-1.8-1.5-3.5-1.5c-2,0-3.7,0.8-5.1,2.3
		c-1.4,1.6-2.1,3.5-2.1,5.9v20.1c0,2,0.3,3.3,0.9,4.1c0.6,0.7,1.6,1.1,3,1.1v1.5c-4.6-0.2-7.6-0.3-8.9-0.3c-1.6,0-4.9,0.1-9.9,0.3
		v-1.5c1.7,0,2.9-0.4,3.6-1.1c0.7-0.7,1-2.1,1-4.1v-41c0-2.2-0.3-3.8-1-4.8c-0.7-1-1.9-1.5-3.6-1.5v-1.5c1.5,0.1,3,0.2,4.5,0.2
		c4.2,0,7.7-0.3,10.5-1V128.8z"/>
	<path class="st6" d="M-496.5,153.7c0,2,0.3,3.3,1,4.1c0.7,0.7,1.9,1.1,3.6,1.1v1.5c-4.8-0.2-8-0.3-9.6-0.3c-1.5,0-4.8,0.1-10,0.3
		v-1.5c1.7,0,2.9-0.4,3.6-1.1c0.7-0.7,1-2.1,1-4.1V131c0-2.2-0.3-3.8-1-4.8c-0.7-1-1.9-1.5-3.6-1.5v-1.5c1.5,0.1,3,0.2,4.5,0.2
		c4.3,0,7.8-0.3,10.5-1V153.7z M-497.4,106.1c1.2,1,1.8,2.3,1.8,4.1s-0.6,3.1-1.8,4.1c-1.2,1-2.8,1.5-4.8,1.5s-3.6-0.5-4.8-1.5
		c-1.2-1-1.8-2.3-1.8-4.1s0.6-3.1,1.8-4.1c1.2-1,2.8-1.5,4.8-1.5S-498.6,105.1-497.4,106.1z"/>
	<path class="st6" d="M-474.2,153.7c0,2,0.3,3.3,1,4.1c0.7,0.7,1.9,1.1,3.6,1.1v1.5c-5-0.2-8.2-0.3-9.6-0.3c-1.6,0-4.9,0.1-9.9,0.3
		v-1.5c1.7,0,2.9-0.4,3.6-1.1c0.7-0.7,1-2.1,1-4.1v-41c0-2.2-0.3-3.8-1-4.8c-0.7-1-1.9-1.5-3.6-1.5v-1.5c1.5,0.1,3,0.2,4.5,0.2
		c4.2,0,7.7-0.3,10.5-1V153.7z"/>
	<path class="st6" d="M-430.7,157.3c0.7,1,1.9,1.5,3.6,1.5v1.5c-1.5-0.1-3-0.2-4.5-0.2c-4.3,0-7.8,0.3-10.5,1v-6.2
		c-1.6,4.3-4.8,6.5-9.4,6.5c-4.5,0-8.1-1.6-10.8-4.9c-2.7-3.3-4-8.2-3.9-14.9c0-4.2,0.7-7.8,2.1-10.7c1.4-2.9,3.3-5.1,5.7-6.6
		c2.4-1.5,5.2-2.2,8.3-2.2c3.5,0,6.2,0.9,8,2.7v-12.2c0-2.2-0.3-3.8-1-4.8c-0.7-1-1.9-1.5-3.6-1.5v-1.5c1.5,0.1,3,0.2,4.5,0.2
		c4.2,0,7.7-0.3,10.5-1v48.5C-431.8,154.7-431.4,156.3-430.7,157.3z M-444.3,156.6c1.2-1.2,2-2.7,2.2-4.7v-25.2
		c-1.2-1.6-3-2.4-5.3-2.4c-2.5,0-4.5,1.5-5.9,4.4c-1.4,2.9-2.1,7.3-2,13.1c0,5.9,0.5,10.1,1.7,12.7c1.2,2.6,2.9,3.9,5.1,3.9
		C-446.9,158.3-445.5,157.7-444.3,156.6z"/>
	<path class="st6" d="M-409.5,128.8c2.2-4.5,6.1-6.7,11.7-6.7c3.7,0,6.4,0.9,7.9,2.8c0.8,0.9,1.4,2.1,1.8,3.6
		c0.4,1.5,0.5,3.4,0.5,5.8v19.4c0,2,0.3,3.3,1,4.1c0.7,0.7,1.9,1.1,3.6,1.1v1.5c-5-0.2-8.2-0.3-9.5-0.3c-1.6,0-4.8,0.1-9.4,0.3v-1.5
		c1.4,0,2.4-0.4,3-1.1c0.6-0.7,0.9-2.1,0.9-4.1v-22.4c0-2-0.3-3.5-1-4.5c-0.6-1-1.8-1.5-3.5-1.5c-2,0-3.7,0.8-5.1,2.3
		c-1.4,1.6-2.1,3.5-2.1,5.9v20.1c0,2,0.3,3.3,0.9,4.1c0.6,0.7,1.6,1.1,3,1.1v1.5c-4.6-0.2-7.6-0.3-8.9-0.3c-1.6,0-4.9,0.1-9.9,0.3
		v-1.5c1.7,0,2.9-0.4,3.6-1.1c0.7-0.7,1-2.1,1-4.1v-41c0-2.2-0.3-3.8-1-4.8c-0.7-1-1.9-1.5-3.6-1.5v-1.5c1.5,0.1,3,0.2,4.5,0.2
		c4.2,0,7.7-0.3,10.5-1V128.8z"/>
	<path class="st6" d="M-348.8,126.9c3.1,3.1,4.7,8.1,4.7,14.9c0,6.8-1.6,11.8-4.7,14.9c-3.1,3.1-7.4,4.7-13,4.7
		c-5.5,0-9.8-1.6-12.9-4.7c-3.1-3.1-4.7-8.1-4.7-14.9c0-6.8,1.6-11.8,4.7-14.9c3.1-3.1,7.5-4.7,12.9-4.7
		C-356.2,122.1-351.9,123.7-348.8,126.9z M-366.7,128.1c-1.2,3-1.8,7.6-1.8,13.7c0,6.1,0.6,10.7,1.8,13.7c1.2,3,2.9,4.5,4.9,4.5
		c2.1,0,3.8-1.5,5-4.4c1.2-3,1.8-7.5,1.8-13.7c0-6.2-0.6-10.8-1.8-13.8c-1.2-3-2.9-4.5-4.9-4.5
		C-363.8,123.6-365.5,125.1-366.7,128.1z"/>
	<path class="st6" d="M-308.1,126.9c3.1,3.1,4.7,8.1,4.7,14.9c0,6.8-1.6,11.8-4.7,14.9c-3.1,3.1-7.4,4.7-13,4.7
		c-5.5,0-9.8-1.6-12.9-4.7c-3.1-3.1-4.7-8.1-4.7-14.9c0-6.8,1.6-11.8,4.7-14.9c3.1-3.1,7.5-4.7,12.9-4.7
		C-315.6,122.1-311.3,123.7-308.1,126.9z M-326,128.1c-1.2,3-1.8,7.6-1.8,13.7c0,6.1,0.6,10.7,1.8,13.7c1.2,3,2.9,4.5,4.9,4.5
		c2.1,0,3.8-1.5,5-4.4c1.2-3,1.8-7.5,1.8-13.7c0-6.2-0.6-10.8-1.8-13.8c-1.2-3-2.9-4.5-4.9-4.5C-323.2,123.6-324.8,125.1-326,128.1z
		"/>
	<path class="st6" d="M-262.6,157.3c0.7,1,1.9,1.5,3.6,1.5v1.5c-1.5-0.1-3-0.2-4.5-0.2c-4.3,0-7.8,0.3-10.5,1v-6.2
		c-1.6,4.3-4.8,6.5-9.4,6.5c-4.5,0-8.1-1.6-10.8-4.9c-2.7-3.3-4-8.2-3.9-14.9c0-4.2,0.7-7.8,2.1-10.7c1.4-2.9,3.3-5.1,5.7-6.6
		c2.4-1.5,5.2-2.2,8.3-2.2c3.5,0,6.2,0.9,8,2.7v-12.2c0-2.2-0.3-3.8-1-4.8c-0.7-1-1.9-1.5-3.6-1.5v-1.5c1.5,0.1,3,0.2,4.5,0.2
		c4.2,0,7.7-0.3,10.5-1v48.5C-263.6,154.7-263.2,156.3-262.6,157.3z M-276.1,156.6c1.2-1.2,2-2.7,2.2-4.7v-25.2
		c-1.2-1.6-3-2.4-5.3-2.4c-2.5,0-4.5,1.5-5.9,4.4c-1.4,2.9-2.1,7.3-2,13.1c0,5.9,0.5,10.1,1.7,12.7c1.2,2.6,2.9,3.9,5.1,3.9
		C-278.8,158.3-277.4,157.7-276.1,156.6z"/>
	<path class="st6" d="M-751.3,202.2c4.7,4.2,7,10.4,7,18.5c0,5.2-1.1,9.8-3.4,13.7c-2.3,3.9-5.6,6.9-9.9,9.1
		c-4.3,2.2-9.4,3.2-15.4,3.2l-4.5-0.1c-2.8-0.1-4.8-0.1-6-0.1c-4.9,0-8.6,0.1-11.1,0.2v-1.4c1.6-0.1,2.7-0.3,3.5-0.6
		c0.7-0.3,1.2-0.8,1.5-1.7c0.3-0.8,0.4-2.1,0.4-4v-35.7c0-1.8-0.1-3.1-0.4-4c-0.3-0.8-0.8-1.4-1.5-1.7c-0.7-0.3-1.9-0.5-3.5-0.6
		v-1.4c2,0.1,4.9,0.2,8.7,0.2h2.2l2.9-0.1c3.9-0.1,6.7-0.1,8.4-0.1C-762.9,195.8-755.9,197.9-751.3,202.2z M-775.7,197.6
		c-0.7,0.3-1.3,0.9-1.5,1.8c-0.3,0.9-0.4,2.2-0.4,3.9v36c0,1.7,0.1,3,0.4,3.9c0.3,0.9,0.8,1.5,1.5,1.8c0.7,0.3,1.9,0.5,3.4,0.5
		c5.8,0,9.9-2,12.4-6.1c2.4-4.1,3.7-10.2,3.7-18.4s-1.3-14.2-3.8-18.1c-2.5-3.9-6.6-5.8-12.3-5.8
		C-773.9,197.1-775,197.3-775.7,197.6z"/>
	<path class="st6" d="M-708.7,236.1l1.3,0.4c-1,3.1-2.7,5.8-5.1,8c-2.5,2.2-5.6,3.3-9.3,3.3c-5.1,0-9.1-1.6-12.1-4.9
		c-3-3.2-4.5-8-4.5-14.4c0-6.5,1.6-11.4,4.8-14.9c3.2-3.4,7.5-5.1,12.8-5.1c9,0,13.5,5.3,13.5,16h-20.2c0,0.7-0.1,1.8-0.1,3.4
		c0,3.2,0.4,5.8,1.3,7.9c0.9,2.1,2,3.6,3.5,4.6c1.4,1,2.9,1.4,4.6,1.4C-714.3,241.9-711.1,240-708.7,236.1z M-725.5,213.3
		c-1.1,2.1-1.8,5.4-2.1,9.9h11.3c0.1-3.8-0.3-6.9-1.1-9.4c-0.8-2.5-2.1-3.7-3.8-3.7C-723,210.1-724.4,211.1-725.5,213.3z"/>
	<path class="st6" d="M-669.1,209.6v1.4c-1,0.3-1.9,0.9-2.7,1.8c-0.8,0.9-1.5,2.4-2.3,4.4l-10.5,29.7c-0.5,0-1.3-0.1-2.4-0.1
		c-1,0-1.8,0-2.3,0.1l-12.8-31.8c-0.7-1.6-1.4-2.7-2.1-3.2c-0.7-0.5-1.4-0.8-2.1-0.8v-1.5c3.4,0.2,6.8,0.4,10.2,0.4
		c3,0,6.1-0.1,9.4-0.4v1.5c-1.6,0-2.8,0.1-3.5,0.3c-0.7,0.2-1,0.8-1,1.8c0,0.4,0.1,1,0.4,1.8l8.2,21.8l5.2-14.3
		c0.8-2.3,1.2-4.2,1.2-5.8c0-3.5-1.8-5.4-5.3-5.7v-1.4c2.2,0.1,4.5,0.2,6.9,0.2C-672.2,209.8-670.3,209.7-669.1,209.6z"/>
	<path class="st6" d="M-637.7,236.1l1.3,0.4c-1,3.1-2.7,5.8-5.1,8c-2.5,2.2-5.6,3.3-9.3,3.3c-5.1,0-9.1-1.6-12.1-4.9
		c-3-3.2-4.5-8-4.5-14.4c0-6.5,1.6-11.4,4.8-14.9c3.2-3.4,7.5-5.1,12.8-5.1c9,0,13.5,5.3,13.5,16h-20.2c0,0.7-0.1,1.8-0.1,3.4
		c0,3.2,0.4,5.8,1.3,7.9c0.9,2.1,2,3.6,3.5,4.6c1.4,1,2.9,1.4,4.6,1.4C-643.2,241.9-640.1,240-637.7,236.1z M-654.5,213.3
		c-1.1,2.1-1.8,5.4-2.1,9.9h11.3c0.1-3.8-0.3-6.9-1.1-9.4c-0.8-2.5-2.1-3.7-3.8-3.7C-651.9,210.1-653.3,211.1-654.5,213.3z"/>
	<path class="st6" d="M-617.4,240.1c0,2,0.3,3.3,1,4.1c0.7,0.7,1.9,1.1,3.6,1.1v1.5c-5-0.2-8.2-0.3-9.6-0.3c-1.6,0-4.9,0.1-9.9,0.3
		v-1.5c1.7,0,2.9-0.4,3.6-1.1c0.7-0.7,1-2.1,1-4.1v-41c0-2.2-0.3-3.8-1-4.8c-0.7-1-1.9-1.5-3.6-1.5v-1.5c1.5,0.1,3,0.2,4.5,0.2
		c4.2,0,7.7-0.3,10.5-1V240.1z"/>
	<path class="st6" d="M-578.8,213.3c3.1,3.1,4.7,8.1,4.7,14.9c0,6.8-1.6,11.8-4.7,14.9c-3.1,3.1-7.4,4.7-13,4.7
		c-5.5,0-9.8-1.6-12.9-4.7c-3.1-3.1-4.7-8.1-4.7-14.9c0-6.8,1.6-11.8,4.7-14.9c3.1-3.1,7.5-4.7,12.9-4.7
		C-586.3,208.5-582,210.1-578.8,213.3z M-596.7,214.5c-1.2,3-1.8,7.6-1.8,13.7c0,6.1,0.6,10.7,1.8,13.7c1.2,3,2.9,4.5,4.9,4.5
		c2.1,0,3.8-1.5,5-4.4c1.2-3,1.8-7.5,1.8-13.7c0-6.2-0.6-10.8-1.8-13.8c-1.2-3-2.9-4.5-4.9-4.5C-593.9,210-595.5,211.5-596.7,214.5z
		"/>
	<path class="st6" d="M-537.2,210.6c1.9,1.3,3.5,3.4,4.6,6c1.1,2.7,1.7,6,1.7,9.9c0,6.9-1.5,12.1-4.5,15.8c-3,3.7-7.1,5.5-12.2,5.5
		c-1.4,0-2.8-0.2-4.1-0.6c-1.3-0.4-2.4-1-3.3-1.7v7.2c0,2.1,0.5,3.6,1.6,4.4c1.1,0.8,2.7,1.2,4.9,1.2v1.5l-1.9-0.1
		c-5.3-0.1-8.7-0.2-10.2-0.2c-1.4,0-4.5,0.1-9.1,0.3v-1.5c1.6,0,2.7-0.3,3.3-1c0.6-0.7,1-2,1-3.9v-36c0-2.2-0.3-3.8-1-4.8
		c-0.7-1-1.9-1.5-3.6-1.5v-1.5c1.5,0.1,3,0.2,4.5,0.2c4.2,0,7.7-0.3,10.5-1v6.6c1-2.2,2.5-3.9,4.4-5.1c1.9-1.2,4.2-1.8,6.8-1.8
		C-541.4,208.5-539.1,209.2-537.2,210.6z M-543.9,241.3c1.3-3,2-7.5,2-13.4c0-5.9-0.5-10-1.6-12.5c-1.1-2.5-2.6-3.7-4.6-3.7
		c-1.6,0-3.1,0.6-4.4,1.7c-1.3,1.1-2.1,2.6-2.6,4.6v26c1.2,1.3,2.7,1.9,4.5,1.9C-547.4,245.8-545.2,244.3-543.9,241.3z"/>
	<path class="st6" d="M-467.6,244.1c0.7,0.7,1.9,1.1,3.6,1.1v1.5c-4.8-0.2-8-0.3-9.5-0.3c-1.3,0-4.3,0.1-8.9,0.3v-1.5
		c1.3,0,2.2-0.4,2.7-1.1c0.5-0.7,0.8-2.1,0.8-4.1v-22.4c0-2-0.3-3.5-0.9-4.5c-0.6-1-1.7-1.5-3.4-1.5c-1.8,0-3.3,0.7-4.6,2.2
		c-1.3,1.5-2.1,3.3-2.3,5.5v1.3v19.4c0,2,0.3,3.3,0.9,4.1c0.6,0.7,1.7,1.1,3.3,1.1v1.5c-4.6-0.2-7.6-0.3-9.1-0.3
		c-1.3,0-4.3,0.1-8.9,0.3v-1.5c1.3,0,2.2-0.4,2.7-1.1c0.5-0.7,0.8-2.1,0.8-4.1v-22.4c0-2-0.3-3.5-0.8-4.5c-0.5-1-1.6-1.5-3.1-1.5
		c-1.9,0-3.6,0.8-4.9,2.4c-1.4,1.6-2.1,3.6-2.1,5.9v20c0,2,0.3,3.3,0.8,4.1c0.5,0.7,1.4,1.1,2.7,1.1v1.5c-4.2-0.2-7.1-0.3-8.5-0.3
		s-4.8,0.1-9.9,0.3v-1.5c1.7,0,2.9-0.4,3.6-1.1c0.7-0.7,1-2.1,1-4.1v-22.7c0-2.2-0.3-3.8-1-4.8c-0.7-1-1.9-1.5-3.6-1.5v-1.5
		c1.5,0.1,3,0.2,4.5,0.2c4.3,0,7.8-0.3,10.5-1v6.5c2.1-4.5,5.8-6.7,11.2-6.7c3.6,0,6.3,0.9,7.9,2.8c0.9,1,1.5,2.4,1.8,4.3
		c1.2-2.6,2.9-4.4,4.9-5.5c2-1.1,4.4-1.6,7.1-1.6c3.6,0,6.3,0.9,7.9,2.8c0.8,0.9,1.3,2,1.7,3.5c0.3,1.5,0.5,3.4,0.5,5.8v19.4
		C-468.6,242-468.3,243.4-467.6,244.1z"/>
	<path class="st6" d="M-430.7,236.1l1.3,0.4c-1,3.1-2.7,5.8-5.1,8c-2.5,2.2-5.6,3.3-9.3,3.3c-5.1,0-9.1-1.6-12.1-4.9
		c-3-3.2-4.5-8-4.5-14.4c0-6.5,1.6-11.4,4.8-14.9c3.2-3.4,7.5-5.1,12.8-5.1c9,0,13.5,5.3,13.5,16h-20.2c0,0.7-0.1,1.8-0.1,3.4
		c0,3.2,0.4,5.8,1.3,7.9c0.9,2.1,2,3.6,3.5,4.6c1.4,1,2.9,1.4,4.6,1.4C-436.2,241.9-433.1,240-430.7,236.1z M-447.5,213.3
		c-1.1,2.1-1.8,5.4-2.1,9.9h11.3c0.1-3.8-0.3-6.9-1.1-9.4c-0.8-2.5-2.1-3.7-3.8-3.7C-444.9,210.1-446.4,211.1-447.5,213.3z"/>
	<path class="st6" d="M-390.8,211.4c0.8,0.9,1.4,2.1,1.7,3.5c0.3,1.4,0.5,3.4,0.5,5.8v19.4c0,2,0.3,3.3,1,4.1
		c0.7,0.7,1.9,1.1,3.6,1.1v1.5c-4.8-0.2-8-0.3-9.5-0.3c-1.4,0-4.6,0.1-9.4,0.3v-1.5c1.4,0,2.4-0.4,3-1.1c0.6-0.7,0.9-2.1,0.9-4.1
		v-22.4c0-2-0.3-3.5-1-4.5c-0.6-1-1.8-1.5-3.5-1.5c-2,0-3.6,0.8-5,2.4c-1.4,1.6-2.1,3.6-2.1,5.9v20c0,2,0.3,3.3,0.9,4.1
		c0.6,0.7,1.6,1.1,3,1.1v1.5c-4.4-0.2-7.4-0.3-8.9-0.3c-1.4,0-4.8,0.1-9.9,0.3v-1.5c1.7,0,2.9-0.4,3.6-1.1c0.7-0.7,1-2.1,1-4.1
		v-22.7c0-2.2-0.3-3.8-1-4.8c-0.7-1-1.9-1.5-3.6-1.5v-1.5c1.5,0.1,3,0.2,4.5,0.2c4.3,0,7.8-0.3,10.5-1v6.5c2.2-4.5,6.1-6.7,11.8-6.7
		C-395.1,208.5-392.4,209.5-390.8,211.4z"/>
	<path class="st6" d="M-366.7,209.6h8.5v1.4h-8.5v29.1c0,1.4,0.3,2.5,0.8,3.1c0.5,0.6,1.3,0.9,2.4,0.9c2.1,0,3.7-1.4,4.9-4.3
		l1.2,0.6c-1.8,4.9-5.1,7.4-9.9,7.4c-3.2,0-5.6-0.8-7.2-2.4c-1-1-1.7-2.3-2.1-3.8c-0.4-1.5-0.5-3.6-0.5-6.2V211h-6v-1.4h6V200
		c4,0,7.4-0.8,10.4-2.3V209.6z"/>
</g>
<g>
	<line class="st6" x1="68" y1="814" x2="-229" y2="814"/>
</g>
<g>
	<path class="st6" d="M-766.2,809h-1.2v-8.4h-10v8.4h-1.2v-17.1h1.2v7.6h10v-7.6h1.2V809z"/>
	<path class="st6" d="M-751.1,802.6c0,2.1-0.5,3.7-1.5,4.9s-2.4,1.8-4.2,1.8c-1.1,0-2.1-0.3-3-0.8s-1.5-1.3-2-2.3s-0.7-2.2-0.7-3.5
		c0-2.1,0.5-3.7,1.5-4.9s2.4-1.7,4.1-1.7c1.8,0,3.1,0.6,4.1,1.8S-751.1,800.6-751.1,802.6z M-761.1,802.6c0,1.8,0.4,3.1,1.2,4.1
		s1.9,1.5,3.3,1.5s2.5-0.5,3.3-1.5s1.2-2.3,1.2-4.1c0-1.8-0.4-3.1-1.2-4.1s-1.9-1.5-3.3-1.5s-2.5,0.5-3.3,1.4
		S-761.1,800.8-761.1,802.6z"/>
	<path class="st6" d="M-744.8,809l-4.9-12.7h1.2l3.3,8.7c0.4,1.1,0.8,2.1,1,2.9h0.1c0.3-1.1,0.6-2,1-2.9l3.3-8.6h1.2l-4.9,12.7
		H-744.8z"/>
	<path class="st6" d="M-731.4,809.2c-1.9,0-3.3-0.6-4.3-1.7s-1.6-2.7-1.6-4.8c0-2,0.5-3.7,1.5-4.9s2.3-1.8,4-1.8
		c1.5,0,2.7,0.5,3.6,1.6s1.3,2.5,1.3,4.3v0.9h-9.2c0,1.8,0.4,3.1,1.2,4s1.9,1.4,3.4,1.4c0.7,0,1.4-0.1,1.9-0.2s1.2-0.3,2.1-0.7v1.1
		c-0.7,0.3-1.4,0.5-2,0.6S-730.6,809.2-731.4,809.2z M-731.7,797c-1.2,0-2.2,0.4-3,1.2s-1.2,2-1.3,3.5h7.9c0-1.5-0.3-2.6-1-3.5
		S-730.6,797-731.7,797z"/>
	<path class="st6" d="M-718.3,796c0.5,0,1.1,0.1,1.7,0.2l-0.2,1.1c-0.5-0.1-1.1-0.2-1.7-0.2c-1.1,0-2,0.5-2.7,1.4s-1,2.1-1,3.5v7
		h-1.2v-12.7h1l0.1,2.3h0.1c0.5-0.9,1.1-1.6,1.7-2S-719.2,796-718.3,796z"/>
	<path class="st6" d="M-697.2,802.6c0,2.1-0.5,3.7-1.5,4.9s-2.4,1.8-4.2,1.8c-1.1,0-2.1-0.3-3-0.8s-1.5-1.3-2-2.3s-0.7-2.2-0.7-3.5
		c0-2.1,0.5-3.7,1.5-4.9s2.4-1.7,4.1-1.7c1.8,0,3.1,0.6,4.1,1.8S-697.2,800.6-697.2,802.6z M-707.3,802.6c0,1.8,0.4,3.1,1.2,4.1
		s1.9,1.5,3.3,1.5s2.5-0.5,3.3-1.5s1.2-2.3,1.2-4.1c0-1.8-0.4-3.1-1.2-4.1s-1.9-1.5-3.3-1.5s-2.5,0.5-3.3,1.4
		S-707.3,800.8-707.3,802.6z"/>
	<path class="st6" d="M-684.8,809v-8.3c0-1.3-0.3-2.2-0.8-2.8s-1.4-0.9-2.5-0.9c-1.5,0-2.6,0.4-3.3,1.2s-1.1,2-1.1,3.7v7h-1.2v-12.7
		h1l0.2,1.7h0.1c0.8-1.3,2.3-2,4.4-2c2.9,0,4.3,1.6,4.3,4.7v8.3H-684.8z"/>
	<path class="st6" d="M-670,808.2c0.7,0,1.4-0.1,1.9-0.2v0.9c-0.6,0.2-1.2,0.3-1.9,0.3c-1.1,0-2-0.3-2.5-0.9s-0.8-1.5-0.8-2.8v-8.2
		h-1.9v-0.7l1.9-0.5l0.6-2.9h0.6v3.1h3.7v1h-3.7v8.1c0,1,0.2,1.7,0.5,2.2S-670.7,808.2-670,808.2z"/>
	<path class="st6" d="M-656.4,809v-8.3c0-1.3-0.3-2.2-0.8-2.8s-1.4-0.9-2.5-0.9c-1.5,0-2.6,0.4-3.3,1.2s-1.1,2-1.1,3.7v7h-1.2v-18.2
		h1.2v5.8l-0.1,1.6h0.1c0.5-0.8,1.1-1.3,1.8-1.7s1.6-0.5,2.7-0.5c2.9,0,4.3,1.6,4.3,4.7v8.3H-656.4z"/>
	<path class="st6" d="M-646,809.2c-1.9,0-3.3-0.6-4.3-1.7s-1.6-2.7-1.6-4.8c0-2,0.5-3.7,1.5-4.9s2.3-1.8,4-1.8
		c1.5,0,2.7,0.5,3.6,1.6s1.3,2.5,1.3,4.3v0.9h-9.2c0,1.8,0.4,3.1,1.2,4s1.9,1.4,3.4,1.4c0.7,0,1.4-0.1,1.9-0.2s1.2-0.3,2.1-0.7v1.1
		c-0.7,0.3-1.4,0.5-2,0.6S-645.3,809.2-646,809.2z M-646.3,797c-1.2,0-2.2,0.4-3,1.2s-1.2,2-1.3,3.5h7.9c0-1.5-0.3-2.6-1-3.5
		S-645.2,797-646.3,797z"/>
	<path class="st6" d="M-626.3,796c1.8,0,3.1,0.6,4,1.7s1.4,2.8,1.4,4.9c0,2.1-0.5,3.8-1.4,4.9s-2.3,1.7-4,1.7
		c-0.9,0-1.7-0.2-2.4-0.6s-1.3-0.9-1.7-1.6h-0.1l-0.3,1.9h-0.7v-18.2h1.2v4.6c0,0.7,0,1.3,0,1.9l0,1h0.1c0.5-0.8,1.1-1.3,1.8-1.7
		S-627.3,796-626.3,796z M-626.4,797.1c-1.5,0-2.6,0.4-3.2,1.3s-1,2.3-1,4.3v0.2c0,1.9,0.3,3.3,1,4.1s1.7,1.3,3.2,1.3
		c1.4,0,2.4-0.5,3.1-1.5s1.1-2.4,1.1-4.2C-622.2,798.9-623.6,797.1-626.4,797.1z"/>
	<path class="st6" d="M-609.7,809l-0.3-2h-0.1c-0.6,0.8-1.3,1.4-2,1.7s-1.5,0.5-2.4,0.5c-1.3,0-2.2-0.3-2.9-1s-1-1.5-1-2.7
		c0-1.2,0.5-2.2,1.6-2.9s2.5-1.1,4.5-1.1l2.4-0.1v-0.8c0-1.2-0.2-2.1-0.7-2.7s-1.3-0.9-2.4-0.9c-1.2,0-2.4,0.3-3.7,1l-0.4-1
		c1.4-0.7,2.8-1,4.1-1c1.4,0,2.4,0.4,3.1,1.1s1,1.9,1,3.4v8.5H-609.7z M-614.4,808.2c1.4,0,2.4-0.4,3.2-1.2s1.2-1.9,1.2-3.2v-1.3
		l-2.2,0.1c-1.8,0.1-3.1,0.4-3.8,0.8s-1.1,1.2-1.1,2.2c0,0.8,0.2,1.4,0.7,1.9S-615.3,808.2-614.4,808.2z"/>
	<path class="st6" d="M-599.7,796c0.5,0,1.1,0.1,1.7,0.2l-0.2,1.1c-0.5-0.1-1.1-0.2-1.7-0.2c-1.1,0-2,0.5-2.7,1.4s-1,2.1-1,3.5v7
		h-1.2v-12.7h1l0.1,2.3h0.1c0.5-0.9,1.1-1.6,1.7-2S-600.6,796-599.7,796z"/>
	<path class="st6" d="M-587.5,805.7c0,1.1-0.4,2-1.3,2.6s-2.1,0.9-3.7,0.9c-1.7,0-3.1-0.3-4.1-0.8v-1.3c1.3,0.6,2.6,1,4.1,1
		c1.3,0,2.2-0.2,2.9-0.6s1-1,1-1.7c0-0.6-0.3-1.2-0.8-1.6s-1.4-0.9-2.6-1.3c-1.3-0.5-2.2-0.9-2.7-1.2s-0.9-0.7-1.2-1.1
		s-0.4-0.9-0.4-1.5c0-1,0.4-1.7,1.2-2.3s1.9-0.8,3.4-0.8c1.4,0,2.7,0.3,3.9,0.8l-0.4,1.1c-1.3-0.5-2.4-0.8-3.5-0.8
		c-1,0-1.9,0.2-2.5,0.5s-0.9,0.8-0.9,1.4c0,0.7,0.2,1.2,0.7,1.6s1.4,0.8,2.8,1.3c1.1,0.4,2,0.8,2.5,1.1s0.9,0.7,1.2,1.1
		S-587.5,805.1-587.5,805.7z"/>
	<path class="st6" d="M-574.6,808.2c0.7,0,1.4-0.1,1.9-0.2v0.9c-0.6,0.2-1.2,0.3-1.9,0.3c-1.1,0-2-0.3-2.5-0.9s-0.8-1.5-0.8-2.8
		v-8.2h-1.9v-0.7l1.9-0.5l0.6-2.9h0.6v3.1h3.7v1h-3.7v8.1c0,1,0.2,1.7,0.5,2.2S-575.3,808.2-574.6,808.2z"/>
	<path class="st6" d="M-559.4,802.6c0,2.1-0.5,3.7-1.5,4.9s-2.4,1.8-4.2,1.8c-1.1,0-2.1-0.3-3-0.8s-1.5-1.3-2-2.3s-0.7-2.2-0.7-3.5
		c0-2.1,0.5-3.7,1.5-4.9s2.4-1.7,4.1-1.7c1.8,0,3.1,0.6,4.1,1.8S-559.4,800.6-559.4,802.6z M-569.5,802.6c0,1.8,0.4,3.1,1.2,4.1
		s1.9,1.5,3.3,1.5s2.5-0.5,3.3-1.5s1.2-2.3,1.2-4.1c0-1.8-0.4-3.1-1.2-4.1s-1.9-1.5-3.3-1.5s-2.5,0.5-3.3,1.4
		S-569.5,800.8-569.5,802.6z"/>
	<path class="st6" d="M-548.5,803.4l6.5-7.1h1.4l-5,5.4l5.4,7.3h-1.4l-4.8-6.4l-2.1,1.9v4.5h-1.2v-18.2h1.2v9.1L-548.5,803.4
		L-548.5,803.4z"/>
	<path class="st6" d="M-529.1,809v-8.3c0-1.3-0.3-2.2-0.8-2.8s-1.4-0.9-2.5-0.9c-1.5,0-2.6,0.4-3.3,1.2s-1.1,2-1.1,3.7v7h-1.2v-12.7
		h1l0.2,1.7h0.1c0.8-1.3,2.3-2,4.4-2c2.9,0,4.3,1.6,4.3,4.7v8.3H-529.1z"/>
	<path class="st6" d="M-513.3,802.6c0,2.1-0.5,3.7-1.5,4.9s-2.4,1.8-4.2,1.8c-1.1,0-2.1-0.3-3-0.8s-1.5-1.3-2-2.3s-0.7-2.2-0.7-3.5
		c0-2.1,0.5-3.7,1.5-4.9s2.4-1.7,4.1-1.7c1.8,0,3.1,0.6,4.1,1.8S-513.3,800.6-513.3,802.6z M-523.4,802.6c0,1.8,0.4,3.1,1.2,4.1
		s1.9,1.5,3.3,1.5s2.5-0.5,3.3-1.5s1.2-2.3,1.2-4.1c0-1.8-0.4-3.1-1.2-4.1s-1.9-1.5-3.3-1.5s-2.5,0.5-3.3,1.4
		S-523.4,800.8-523.4,802.6z"/>
	<path class="st6" d="M-499.6,809l-2.8-8.5c-0.2-0.6-0.4-1.4-0.7-2.5h-0.1l-0.2,0.9l-0.5,1.7l-2.8,8.5h-1.1l-3.6-12.7h1.2l2,7.4
		c0.5,1.8,0.8,3.2,0.9,4h0.1c0.5-1.8,0.8-3,1-3.6l2.6-7.8h1.1l2.5,7.7c0.6,1.8,0.9,3.1,1,3.6h0.1c0.1-0.5,0.4-1.9,0.9-4.1l1.9-7.3
		h1.2l-3.5,12.7H-499.6z"/>
	<path class="st6" d="M-470.3,809v-8.4c0-1.2-0.2-2.1-0.7-2.7s-1.2-0.9-2.2-0.9c-1.3,0-2.3,0.4-2.9,1.1s-0.9,1.8-0.9,3.4v7.5h-1.2
		v-8.7c0-2.1-1-3.2-3-3.2c-1.3,0-2.3,0.4-2.9,1.2s-0.9,2-0.9,3.7v7h-1.2v-12.7h1l0.2,1.7h0.1c0.4-0.6,0.9-1.1,1.5-1.5
		s1.4-0.5,2.1-0.5c2,0,3.3,0.8,3.9,2.3h0c0.4-0.7,1-1.3,1.7-1.7s1.5-0.6,2.4-0.6c1.4,0,2.4,0.4,3.1,1.1s1,1.9,1,3.5v8.3H-470.3z"/>
	<path class="st6" d="M-454.5,802.6c0,2.1-0.5,3.7-1.5,4.9s-2.4,1.8-4.2,1.8c-1.1,0-2.1-0.3-3-0.8s-1.5-1.3-2-2.3s-0.7-2.2-0.7-3.5
		c0-2.1,0.5-3.7,1.5-4.9s2.4-1.7,4.1-1.7c1.8,0,3.1,0.6,4.1,1.8S-454.5,800.6-454.5,802.6z M-464.5,802.6c0,1.8,0.4,3.1,1.2,4.1
		s1.9,1.5,3.3,1.5s2.5-0.5,3.3-1.5s1.2-2.3,1.2-4.1c0-1.8-0.4-3.1-1.2-4.1s-1.9-1.5-3.3-1.5s-2.5,0.5-3.3,1.4
		S-464.5,800.8-464.5,802.6z"/>
	<path class="st6" d="M-445.9,796c0.5,0,1.1,0.1,1.7,0.2l-0.2,1.1c-0.5-0.1-1.1-0.2-1.7-0.2c-1.1,0-2,0.5-2.7,1.4s-1,2.1-1,3.5v7
		h-1.2v-12.7h1l0.1,2.3h0.1c0.5-0.9,1.1-1.6,1.7-2S-446.8,796-445.9,796z"/>
	<path class="st6" d="M-436.5,809.2c-1.9,0-3.3-0.6-4.3-1.7s-1.6-2.7-1.6-4.8c0-2,0.5-3.7,1.5-4.9s2.3-1.8,4-1.8
		c1.5,0,2.7,0.5,3.6,1.6s1.3,2.5,1.3,4.3v0.9h-9.2c0,1.8,0.4,3.1,1.2,4s1.9,1.4,3.4,1.4c0.7,0,1.4-0.1,1.9-0.2s1.2-0.3,2.1-0.7v1.1
		c-0.7,0.3-1.4,0.5-2,0.6S-435.7,809.2-436.5,809.2z M-436.8,797c-1.2,0-2.2,0.4-3,1.2s-1.2,2-1.3,3.5h7.9c0-1.5-0.3-2.6-1-3.5
		S-435.7,797-436.8,797z"/>
	<path class="st6" d="M-414.5,809l-0.3-2h-0.1c-0.6,0.8-1.3,1.4-2,1.7s-1.5,0.5-2.4,0.5c-1.3,0-2.2-0.3-2.9-1s-1-1.5-1-2.7
		c0-1.2,0.5-2.2,1.6-2.9s2.5-1.1,4.5-1.1l2.4-0.1v-0.8c0-1.2-0.2-2.1-0.7-2.7s-1.3-0.9-2.4-0.9c-1.2,0-2.4,0.3-3.7,1l-0.4-1
		c1.4-0.7,2.8-1,4.1-1c1.4,0,2.4,0.4,3.1,1.1s1,1.9,1,3.4v8.5H-414.5z M-419.2,808.2c1.4,0,2.4-0.4,3.2-1.2s1.2-1.9,1.2-3.2v-1.3
		l-2.2,0.1c-1.8,0.1-3.1,0.4-3.8,0.8s-1.1,1.2-1.1,2.2c0,0.8,0.2,1.4,0.7,1.9S-420.1,808.2-419.2,808.2z"/>
	<path class="st6" d="M-400.6,809v-8.3c0-1.3-0.3-2.2-0.8-2.8s-1.4-0.9-2.5-0.9c-1.5,0-2.6,0.4-3.3,1.2s-1.1,2-1.1,3.7v7h-1.2v-12.7
		h1l0.2,1.7h0.1c0.8-1.3,2.3-2,4.4-2c2.9,0,4.3,1.6,4.3,4.7v8.3H-400.6z"/>
	<path class="st6" d="M-390.7,796c0.9,0,1.7,0.2,2.4,0.5s1.3,0.9,1.8,1.7h0.1c0-1-0.1-1.9-0.1-2.9v-4.6h1.1V809h-0.8l-0.3-1.9h-0.1
		c-1,1.5-2.4,2.2-4.2,2.2c-1.8,0-3.1-0.5-4-1.6s-1.4-2.7-1.4-4.8c0-2.2,0.5-3.9,1.4-5.1S-392.4,796-390.7,796z M-390.7,797.1
		c-1.4,0-2.4,0.5-3.1,1.5s-1,2.4-1,4.3c0,3.6,1.4,5.4,4.2,5.4c1.4,0,2.5-0.4,3.2-1.3s1-2.2,1-4.1v-0.2c0-2-0.3-3.4-1-4.2
		S-389.2,797.1-390.7,797.1z"/>
	<path class="st6" d="M-371.5,808.2c0.7,0,1.4-0.1,1.9-0.2v0.9c-0.6,0.2-1.2,0.3-1.9,0.3c-1.1,0-2-0.3-2.5-0.9s-0.8-1.5-0.8-2.8
		v-8.2h-1.9v-0.7l1.9-0.5l0.6-2.9h0.6v3.1h3.7v1h-3.7v8.1c0,1,0.2,1.7,0.5,2.2S-372.2,808.2-371.5,808.2z"/>
	<path class="st6" d="M-361.8,796c0.5,0,1.1,0.1,1.7,0.2l-0.2,1.1c-0.5-0.1-1.1-0.2-1.7-0.2c-1.1,0-2,0.5-2.7,1.4s-1,2.1-1,3.5v7
		h-1.2v-12.7h1l0.1,2.3h0.1c0.5-0.9,1.1-1.6,1.7-2S-362.6,796-361.8,796z"/>
	<path class="st6" d="M-349.7,809l-0.3-2h-0.1c-0.6,0.8-1.3,1.4-2,1.7s-1.5,0.5-2.4,0.5c-1.3,0-2.2-0.3-2.9-1s-1-1.5-1-2.7
		c0-1.2,0.5-2.2,1.6-2.9s2.5-1.1,4.5-1.1l2.4-0.1v-0.8c0-1.2-0.2-2.1-0.7-2.7s-1.3-0.9-2.4-0.9c-1.2,0-2.4,0.3-3.7,1l-0.4-1
		c1.4-0.7,2.8-1,4.1-1c1.4,0,2.4,0.4,3.1,1.1s1,1.9,1,3.4v8.5H-349.7z M-354.4,808.2c1.4,0,2.4-0.4,3.2-1.2s1.2-1.9,1.2-3.2v-1.3
		l-2.2,0.1c-1.8,0.1-3.1,0.4-3.8,0.8s-1.1,1.2-1.1,2.2c0,0.8,0.2,1.4,0.7,1.9S-355.3,808.2-354.4,808.2z"/>
	<path class="st6" d="M-341.9,809l-4.9-12.7h1.2l3.3,8.7c0.4,1.1,0.8,2.1,1,2.9h0.1c0.3-1.1,0.6-2,1-2.9l3.3-8.6h1.2l-4.9,12.7
		H-341.9z"/>
	<path class="st6" d="M-328.6,809.2c-1.9,0-3.3-0.6-4.3-1.7s-1.6-2.7-1.6-4.8c0-2,0.5-3.7,1.5-4.9s2.3-1.8,4-1.8
		c1.5,0,2.7,0.5,3.6,1.6s1.3,2.5,1.3,4.3v0.9h-9.2c0,1.8,0.4,3.1,1.2,4s1.9,1.4,3.4,1.4c0.7,0,1.4-0.1,1.9-0.2s1.2-0.3,2.1-0.7v1.1
		c-0.7,0.3-1.4,0.5-2,0.6S-327.8,809.2-328.6,809.2z M-328.9,797c-1.2,0-2.2,0.4-3,1.2s-1.2,2-1.3,3.5h7.9c0-1.5-0.3-2.6-1-3.5
		S-327.8,797-328.9,797z"/>
	<path class="st6" d="M-319.4,809h-1.2v-18.2h1.2V809z"/>
	<path class="st6" d="M-305.5,808.2c0.7,0,1.4-0.1,1.9-0.2v0.9c-0.6,0.2-1.2,0.3-1.9,0.3c-1.1,0-2-0.3-2.5-0.9s-0.8-1.5-0.8-2.8
		v-8.2h-1.9v-0.7l1.9-0.5l0.6-2.9h0.6v3.1h3.7v1h-3.7v8.1c0,1,0.2,1.7,0.5,2.2S-306.3,808.2-305.5,808.2z"/>
	<path class="st6" d="M-292,809v-8.3c0-1.3-0.3-2.2-0.8-2.8s-1.4-0.9-2.5-0.9c-1.5,0-2.6,0.4-3.3,1.2s-1.1,2-1.1,3.7v7h-1.2v-18.2
		h1.2v5.8l-0.1,1.6h0.1c0.5-0.8,1.1-1.3,1.8-1.7s1.6-0.5,2.7-0.5c2.9,0,4.3,1.6,4.3,4.7v8.3H-292z"/>
	<path class="st6" d="M-281.7,796c0.5,0,1.1,0.1,1.7,0.2l-0.2,1.1c-0.5-0.1-1.1-0.2-1.7-0.2c-1.1,0-2,0.5-2.7,1.4s-1,2.1-1,3.5v7
		h-1.2v-12.7h1l0.1,2.3h0.1c0.5-0.9,1.1-1.6,1.7-2S-282.5,796-281.7,796z"/>
	<path class="st6" d="M-266.8,802.6c0,2.1-0.5,3.7-1.5,4.9s-2.4,1.8-4.2,1.8c-1.1,0-2.1-0.3-3-0.8s-1.5-1.3-2-2.3s-0.7-2.2-0.7-3.5
		c0-2.1,0.5-3.7,1.5-4.9s2.4-1.7,4.1-1.7c1.8,0,3.1,0.6,4.1,1.8S-266.8,800.6-266.8,802.6z M-276.9,802.6c0,1.8,0.4,3.1,1.2,4.1
		s1.9,1.5,3.3,1.5s2.5-0.5,3.3-1.5s1.2-2.3,1.2-4.1c0-1.8-0.4-3.1-1.2-4.1s-1.9-1.5-3.3-1.5s-2.5,0.5-3.3,1.4
		S-276.9,800.8-276.9,802.6z"/>
	<path class="st6" d="M-262.3,796.3v8.3c0,1.3,0.3,2.2,0.8,2.8s1.4,0.9,2.5,0.9c1.5,0,2.6-0.4,3.3-1.1s1.1-2,1.1-3.7v-7h1.1V809h-1
		l-0.2-1.8h-0.1c-0.8,1.3-2.3,2-4.4,2c-2.9,0-4.3-1.6-4.3-4.7v-8.3H-262.3z"/>
	<path class="st6" d="M-239.2,796.3v0.8l-2.6,0.2c0.7,0.9,1.1,1.8,1.1,2.9c0,1.2-0.4,2.2-1.2,3s-1.9,1.1-3.3,1.1c-0.6,0-1,0-1.2-0.1
		c-0.5,0.2-0.8,0.5-1.1,0.9s-0.4,0.7-0.4,1c0,0.4,0.2,0.7,0.5,0.9s0.8,0.3,1.6,0.3h2.2c1.4,0,2.4,0.3,3.2,0.8s1.1,1.4,1.1,2.5
		c0,1.3-0.5,2.4-1.6,3.1s-2.6,1.1-4.7,1.1c-1.6,0-2.8-0.3-3.7-0.9s-1.3-1.5-1.3-2.6c0-0.9,0.3-1.6,0.8-2.2s1.3-1,2.2-1.2
		c-0.4-0.2-0.7-0.4-0.9-0.7s-0.3-0.6-0.3-1c0-0.9,0.5-1.6,1.6-2.3c-0.7-0.3-1.3-0.8-1.7-1.4s-0.6-1.4-0.6-2.2c0-1.3,0.4-2.3,1.2-3.1
		s1.9-1.2,3.3-1.2c0.8,0,1.5,0.1,1.9,0.2H-239.2z M-249.5,811.2c0,1.8,1.3,2.6,3.9,2.6c3.3,0,5-1.1,5-3.2c0-0.8-0.3-1.3-0.8-1.7
		s-1.4-0.5-2.5-0.5h-2.1C-248.3,808.4-249.5,809.3-249.5,811.2z M-248.5,800.2c0,1,0.3,1.7,0.9,2.3s1.4,0.8,2.4,0.8
		c1.1,0,1.9-0.3,2.4-0.8s0.8-1.3,0.8-2.3c0-1.1-0.3-1.9-0.9-2.4s-1.4-0.8-2.4-0.8c-1,0-1.8,0.3-2.4,0.9S-248.5,799.2-248.5,800.2z"
		/>
	<path class="st6" d="M-227.7,809v-8.3c0-1.3-0.3-2.2-0.8-2.8s-1.4-0.9-2.5-0.9c-1.5,0-2.6,0.4-3.3,1.2s-1.1,2-1.1,3.7v7h-1.2v-18.2
		h1.2v5.8l-0.1,1.6h0.1c0.5-0.8,1.1-1.3,1.8-1.7s1.6-0.5,2.7-0.5c2.9,0,4.3,1.6,4.3,4.7v8.3H-227.7z"/>
	<path class="st6" d="M-212.8,808.2c0.7,0,1.4-0.1,1.9-0.2v0.9c-0.6,0.2-1.2,0.3-1.9,0.3c-1.1,0-2-0.3-2.5-0.9s-0.8-1.5-0.8-2.8
		v-8.2h-1.9v-0.7l1.9-0.5l0.6-2.9h0.6v3.1h3.7v1h-3.7v8.1c0,1,0.2,1.7,0.5,2.2S-213.6,808.2-212.8,808.2z"/>
	<path class="st6" d="M-199.3,809v-8.3c0-1.3-0.3-2.2-0.8-2.8s-1.4-0.9-2.5-0.9c-1.5,0-2.6,0.4-3.3,1.2s-1.1,2-1.1,3.7v7h-1.2v-18.2
		h1.2v5.8l-0.1,1.6h0.1c0.5-0.8,1.1-1.3,1.8-1.7s1.6-0.5,2.7-0.5c2.9,0,4.3,1.6,4.3,4.7v8.3H-199.3z"/>
	<path class="st6" d="M-188.9,809.2c-1.9,0-3.3-0.6-4.3-1.7s-1.6-2.7-1.6-4.8c0-2,0.5-3.7,1.5-4.9s2.3-1.8,4-1.8
		c1.5,0,2.7,0.5,3.6,1.6s1.3,2.5,1.3,4.3v0.9h-9.2c0,1.8,0.4,3.1,1.2,4s1.9,1.4,3.4,1.4c0.7,0,1.4-0.1,1.9-0.2s1.2-0.3,2.1-0.7v1.1
		c-0.7,0.3-1.4,0.5-2,0.6S-188.1,809.2-188.9,809.2z M-189.2,797c-1.2,0-2.2,0.4-3,1.2s-1.2,2-1.3,3.5h7.9c0-1.5-0.3-2.6-1-3.5
		S-188.1,797-189.2,797z"/>
	<path class="st6" d="M-171.2,808.2c0.7,0,1.4-0.1,1.9-0.2v0.9c-0.6,0.2-1.2,0.3-1.9,0.3c-1.1,0-2-0.3-2.5-0.9s-0.8-1.5-0.8-2.8
		v-8.2h-1.9v-0.7l1.9-0.5l0.6-2.9h0.6v3.1h3.7v1h-3.7v8.1c0,1,0.2,1.7,0.5,2.2S-172,808.2-171.2,808.2z"/>
	<path class="st6" d="M-166.7,792.7c0-0.8,0.2-1.1,0.7-1.1c0.2,0,0.4,0.1,0.6,0.3s0.2,0.5,0.2,0.8c0,0.4-0.1,0.6-0.2,0.8
		s-0.3,0.3-0.6,0.3C-166.5,793.9-166.7,793.5-166.7,792.7z M-165.4,809h-1.2v-12.7h1.2V809z"/>
	<path class="st6" d="M-145.2,809v-8.4c0-1.2-0.2-2.1-0.7-2.7s-1.2-0.9-2.2-0.9c-1.3,0-2.3,0.4-2.9,1.1s-0.9,1.8-0.9,3.4v7.5h-1.2
		v-8.7c0-2.1-1-3.2-3-3.2c-1.3,0-2.3,0.4-2.9,1.2s-0.9,2-0.9,3.7v7h-1.2v-12.7h1l0.2,1.7h0.1c0.4-0.6,0.9-1.1,1.5-1.5
		s1.4-0.5,2.1-0.5c2,0,3.3,0.8,3.9,2.3h0c0.4-0.7,1-1.3,1.7-1.7s1.5-0.6,2.4-0.6c1.4,0,2.4,0.4,3.1,1.1s1,1.9,1,3.5v8.3H-145.2z"/>
	<path class="st6" d="M-134.8,809.2c-1.9,0-3.3-0.6-4.3-1.7s-1.6-2.7-1.6-4.8c0-2,0.5-3.7,1.5-4.9s2.3-1.8,4-1.8
		c1.5,0,2.7,0.5,3.6,1.6s1.3,2.5,1.3,4.3v0.9h-9.2c0,1.8,0.4,3.1,1.2,4s1.9,1.4,3.4,1.4c0.7,0,1.4-0.1,1.9-0.2s1.2-0.3,2.1-0.7v1.1
		c-0.7,0.3-1.4,0.5-2,0.6S-134.1,809.2-134.8,809.2z M-135.1,797c-1.2,0-2.2,0.4-3,1.2s-1.2,2-1.3,3.5h7.9c0-1.5-0.3-2.6-1-3.5
		S-134,797-135.1,797z"/>
	<path class="st6" d="M-125.6,809h-1.2v-18.2h1.2V809z"/>
	<path class="st6" d="M-121.5,792.7c0-0.8,0.2-1.1,0.7-1.1c0.2,0,0.4,0.1,0.6,0.3s0.2,0.5,0.2,0.8c0,0.4-0.1,0.6-0.2,0.8
		s-0.3,0.3-0.6,0.3C-121.3,793.9-121.5,793.5-121.5,792.7z M-120.2,809h-1.2v-12.7h1.2V809z"/>
	<path class="st6" d="M-107,809v-8.3c0-1.3-0.3-2.2-0.8-2.8s-1.4-0.9-2.5-0.9c-1.5,0-2.6,0.4-3.3,1.2s-1.1,2-1.1,3.7v7h-1.2v-12.7h1
		l0.2,1.7h0.1c0.8-1.3,2.3-2,4.4-2c2.9,0,4.3,1.6,4.3,4.7v8.3H-107z"/>
	<path class="st6" d="M-96.6,809.2c-1.9,0-3.3-0.6-4.3-1.7s-1.6-2.7-1.6-4.8c0-2,0.5-3.7,1.5-4.9s2.3-1.8,4-1.8
		c1.5,0,2.7,0.5,3.6,1.6s1.3,2.5,1.3,4.3v0.9h-9.2c0,1.8,0.4,3.1,1.2,4s1.9,1.4,3.4,1.4c0.7,0,1.4-0.1,1.9-0.2s1.2-0.3,2.1-0.7v1.1
		c-0.7,0.3-1.4,0.5-2,0.6S-95.9,809.2-96.6,809.2z M-97,797c-1.2,0-2.2,0.4-3,1.2s-1.2,2-1.3,3.5h7.9c0-1.5-0.3-2.6-1-3.5
		S-95.8,797-97,797z"/>
</g>
<g>
	<path class="st6" d="M70,810c-6.4,0-6.4,10,0,10C76.4,820,76.4,810,70,810z"/>
</g>
</svg>
